<svg width="105" height="115" viewBox="0 0 105 115" fill="none" xmlns="http://www.w3.org/2000/svg">
<path d="M69.1466 100.249L43.3825 105.919C41.5469 106.323 39.643 105.42 39.1511 103.912C38.6594 102.405 39.7586 100.841 41.5939 100.437L67.358 94.7661C69.1936 94.3622 71.0976 95.2649 71.5895 96.7727C72.0817 98.2805 70.9819 99.8445 69.1466 100.249ZM57.2176 35.2111C56.9868 37.791 55.2103 39.2451 52.4521 39.2083C49.706 39.1719 47.7075 37.6259 47.7734 35.2718C47.8373 32.9812 49.5857 31.4765 52.5599 31.5033C55.5321 31.5295 57.0054 32.9722 57.2176 35.2111ZM90.2475 26.5165C79.9982 12.6114 59.6982 5.85534 40.839 10.3814C24.3346 14.3427 13.5734 23.2942 9.66055 37.0612C5.78758 50.6874 10.6083 62.4075 22.8088 72.2227C25.67 74.5247 28.3008 77.313 29.9138 80.2884C31.5309 83.2708 32.0493 84.2034 35.9882 83.4204C41.4586 82.333 46.8557 80.9975 52.325 79.9061C55.1288 79.3466 56.1941 78.0607 56.1755 75.7389C56.1006 66.3682 56.1258 56.9969 56.1673 47.6259C56.1764 45.5047 55.3648 43.7582 52.5864 43.7052C49.7738 43.6515 48.9128 45.3396 48.9363 47.5022C49.0014 53.5776 48.956 59.6535 48.9554 65.7292C48.9552 75.5031 48.9554 75.5031 37.2559 76.9074C32.8081 72.7211 28.758 68.958 24.7726 65.1488C10.4691 51.4778 13.0848 31.2683 30.9367 20.8013C43.762 13.2812 57.5395 12.8627 71.2756 19.2122C84.0298 25.1082 90.9686 37.2551 89.1294 49.0055C87.9009 56.8551 83.3377 63.1211 76.5696 68.5074C72.485 71.7582 68.763 75.2581 67.4231 79.9585C66.7964 82.1569 65.2958 83.2474 62.703 83.7723C63.1876 83.4024 34.7572 89.9459 34.7572 89.9459C32.9585 90.3417 31.8814 91.8744 32.3635 93.3517L32.4376 93.5801C32.9197 95.0574 34.7854 95.9423 36.584 95.5466C36.584 95.5466 69.2051 88.346 69.6328 88.2465C72.6537 87.5615 74.2979 85.7949 74.3668 83.2735C74.4696 79.5092 76.4608 76.5794 79.701 74.0784C81.4357 72.7393 83.1627 71.3883 84.7952 69.9667C98.2691 58.228 100.493 40.4169 90.2475 26.5165Z" fill="black"/>
</svg>
