<svg width="140" height="142" viewBox="0 0 140 142" fill="none" xmlns="http://www.w3.org/2000/svg">
<path d="M105 118.333L96.8333 110.05L106.021 100.583H81.6667V88.75H106.021L96.8333 79.2833L105 71L128.333 94.6667L105 118.333ZM60.6667 65.0833L99.1667 42.3042V29.5833H97.7083L60.6667 51.3271L24.6458 29.5833H23.3333V42.6L60.6667 65.0833ZM22.6042 100.583C19.5903 100.583 17.0139 99.4986 14.875 97.3292C12.7361 95.1597 11.6667 92.5465 11.6667 89.4896V28.8437C11.6667 25.7868 12.7361 23.1736 14.875 21.0042C17.0139 18.8347 19.5903 17.75 22.6042 17.75H99.8958C102.91 17.75 105.486 18.8347 107.625 21.0042C109.764 23.1736 110.833 25.7868 110.833 28.8437V59.7583C109.861 59.5611 108.889 59.4132 107.917 59.3146C106.944 59.216 105.972 59.1667 105 59.1667C95.4722 59.1667 87.2569 62.6437 80.3542 69.5977C73.4514 76.5518 70 84.9081 70 94.6667C70 95.6528 70.0486 96.6389 70.1458 97.625C70.2431 98.6111 70.3889 99.5972 70.5833 100.583H22.6042Z" fill="black"/>
</svg>
