<svg width="149" height="142" viewBox="0 0 149 142" fill="none" xmlns="http://www.w3.org/2000/svg">
<path d="M115.009 53.25L108.18 39.05L93.2802 32.5417L108.18 26.0333L115.009 11.8333L121.839 26.0333L136.739 32.5417L121.839 39.05L115.009 53.25ZM127.426 94.6667L122.459 84.6083L111.905 79.875L122.459 75.1417L127.426 65.0833L132.393 75.1417L142.947 79.875L132.393 84.6083L127.426 94.6667ZM46.7177 130.167L44.8552 116.262C44.0274 115.967 43.2266 115.572 42.4526 115.079C41.6786 114.586 41.0309 114.093 40.5094 113.6L26.851 119.221L11.4854 93.4833L23.126 85.2V80.4667L11.4854 72.1833L26.851 46.4458L40.5094 52.0667C41.0267 51.5736 41.6745 51.0806 42.4526 50.5875C43.2307 50.0944 44.0316 49.7 44.8552 49.4042L46.7177 35.5H77.7594L79.6219 49.4042C80.4497 49.7 81.2526 50.0944 82.0307 50.5875C82.8088 51.0806 83.4545 51.5736 83.9677 52.0667L97.6261 46.4458L112.992 72.1833L101.351 80.4667V85.2L112.992 93.4833L97.6261 119.221L83.9677 113.6C83.4504 114.093 82.8047 114.586 82.0307 115.079C81.2567 115.572 80.4538 115.967 79.6219 116.262L77.7594 130.167H46.7177ZM62.2385 100.583C67.4122 100.583 71.8097 98.8576 75.4313 95.4062C79.0528 91.9549 80.8635 87.7639 80.8635 82.8333C80.8635 77.9028 79.0528 73.7118 75.4313 70.2604C71.8097 66.809 67.4122 65.0833 62.2385 65.0833C57.0649 65.0833 52.6674 66.809 49.0458 70.2604C45.4243 73.7118 43.6135 77.9028 43.6135 82.8333C43.6135 87.7639 45.4243 91.9549 49.0458 95.4062C52.6674 98.8576 57.0649 100.583 62.2385 100.583ZM62.2385 88.75C60.4795 88.75 59.004 88.182 57.812 87.046C56.62 85.91 56.0261 84.5058 56.0302 82.8333C56.0302 81.1569 56.6262 79.7507 57.8182 78.6147C59.0102 77.4787 60.4837 76.9127 62.2385 76.9167C63.9976 76.9167 65.4731 77.4847 66.6651 78.6207C67.8571 79.7567 68.451 81.1609 68.4469 82.8333C68.4469 84.5097 67.8509 85.9159 66.6589 87.0519C65.4669 88.1879 63.9934 88.7539 62.2385 88.75ZM57.5823 118.333H66.8948L68.1365 107.683C71.1372 106.894 73.6991 105.883 75.8224 104.648C77.9456 103.413 80.0399 101.763 82.1052 99.6958L92.349 104.133L96.6948 96.7375L87.6927 90.2292C88.5205 87.9611 88.9344 85.4958 88.9344 82.8333C88.9344 80.1708 88.5205 77.7055 87.6927 75.4375L96.6948 68.9292L92.349 61.5333L82.1052 65.9708C80.0358 63.9 77.9415 62.2492 75.8224 61.0186C73.7033 59.7879 71.1413 58.7762 68.1365 57.9833L66.8948 47.3333H57.5823L56.3406 57.9833C53.3399 58.7722 50.78 59.784 48.6609 61.0186C46.5418 62.2532 44.4455 63.9039 42.3719 65.9708L32.1281 61.5333L27.7823 68.9292L36.7844 75.4375C35.9566 77.7055 35.5158 80.1708 35.462 82.8333C35.4082 85.4958 35.849 87.9611 36.7844 90.2292L27.7823 96.7375L32.1281 104.133L42.3719 99.6958C44.4413 101.767 46.5356 103.419 48.6547 104.654C50.7738 105.889 53.3358 106.898 56.3406 107.683L57.5823 118.333Z" fill="black"/>
</svg>
