<svg width="846" height="314" viewBox="0 0 846 314" fill="none" xmlns="http://www.w3.org/2000/svg">
<g filter="url(#filter0_d_81_193)">
<rect x="12" y="10" width="821.631" height="290" rx="15" fill="white"/>
<path d="M84.7585 226.055H801.631" stroke="black"/>
<path d="M114.628 233.469V226.111" stroke="black"/>
<path d="M103.393 254.333L103.824 253.892L106.368 256.494C106.595 256.727 106.746 256.967 106.821 257.214C106.897 257.462 106.9 257.706 106.83 257.945C106.761 258.184 106.623 258.409 106.417 258.62C106.222 258.82 106.013 258.961 105.791 259.044C105.567 259.125 105.346 259.143 105.127 259.097C104.908 259.051 104.708 258.934 104.526 258.748L104.95 258.315C105.051 258.418 105.164 258.482 105.289 258.508C105.414 258.532 105.541 258.52 105.671 258.473C105.801 258.425 105.922 258.344 106.034 258.229C106.158 258.103 106.238 257.968 106.272 257.826C106.307 257.684 106.297 257.538 106.241 257.389C106.185 257.237 106.084 257.086 105.937 256.935L103.393 254.333ZM109.039 255.966C108.869 256.139 108.684 256.264 108.483 256.34C108.28 256.414 108.077 256.431 107.874 256.389C107.671 256.347 107.482 256.237 107.308 256.059C107.155 255.902 107.061 255.745 107.026 255.586C106.991 255.426 106.996 255.267 107.042 255.108C107.088 254.949 107.159 254.794 107.254 254.642C107.349 254.488 107.45 254.339 107.558 254.196C107.699 254.009 107.815 253.858 107.906 253.744C107.996 253.628 108.051 253.533 108.071 253.458C108.092 253.382 108.069 253.311 108.003 253.243L107.989 253.229C107.818 253.053 107.638 252.965 107.449 252.964C107.261 252.962 107.073 253.057 106.884 253.25C106.688 253.45 106.578 253.651 106.552 253.853C106.527 254.054 106.54 254.228 106.592 254.374L106.064 254.63C105.971 254.393 105.938 254.169 105.963 253.958C105.989 253.744 106.052 253.549 106.154 253.371C106.256 253.191 106.374 253.032 106.509 252.895C106.594 252.807 106.703 252.717 106.835 252.624C106.967 252.53 107.117 252.461 107.284 252.418C107.452 252.374 107.633 252.382 107.829 252.44C108.025 252.498 108.229 252.635 108.441 252.852L110.199 254.651L109.789 255.07L109.428 254.701L109.407 254.722C109.437 254.81 109.453 254.921 109.454 255.054C109.455 255.188 109.425 255.334 109.364 255.492C109.302 255.649 109.194 255.808 109.039 255.966ZM108.733 255.526C108.895 255.36 109 255.187 109.047 255.008C109.096 254.828 109.098 254.657 109.054 254.496C109.011 254.334 108.934 254.196 108.823 254.082L108.448 253.698C108.451 253.737 108.432 253.796 108.39 253.874C108.349 253.95 108.296 254.034 108.232 254.125C108.169 254.214 108.106 254.3 108.043 254.383C107.98 254.463 107.93 254.529 107.892 254.58C107.799 254.703 107.722 254.828 107.661 254.955C107.599 255.079 107.571 255.202 107.576 255.323C107.58 255.441 107.635 255.554 107.739 255.661C107.881 255.806 108.042 255.863 108.22 255.83C108.399 255.794 108.569 255.693 108.733 255.526ZM109.752 251.823L111.358 253.466L110.948 253.885L108.279 251.155L108.675 250.749L109.092 251.176L109.127 251.141C109.054 250.938 109.04 250.729 109.085 250.515C109.129 250.299 109.252 250.088 109.453 249.882C109.634 249.697 109.829 249.573 110.039 249.51C110.248 249.446 110.464 249.452 110.689 249.528C110.912 249.603 111.138 249.756 111.365 249.989L113.061 251.724L112.651 252.143L110.982 250.437C110.773 250.222 110.555 250.111 110.329 250.102C110.102 250.093 109.894 250.185 109.704 250.38C109.573 250.514 109.484 250.662 109.438 250.826C109.393 250.988 109.395 251.155 109.445 251.327C109.495 251.499 109.597 251.664 109.752 251.823ZM114.401 248.12L112.823 246.506L113.233 246.086L115.902 248.817L115.492 249.236L115.04 248.774L115.012 248.803C115.085 249.005 115.103 249.223 115.066 249.455C115.028 249.686 114.908 249.905 114.707 250.111C114.54 250.282 114.355 250.396 114.152 250.454C113.948 250.511 113.735 250.501 113.513 250.426C113.289 250.348 113.064 250.194 112.837 249.962L111.141 248.227L111.551 247.807L113.219 249.514C113.414 249.713 113.623 249.816 113.848 249.823C114.074 249.829 114.272 249.745 114.442 249.57C114.544 249.466 114.622 249.333 114.675 249.172C114.73 249.01 114.739 248.837 114.703 248.653C114.668 248.468 114.568 248.291 114.401 248.12ZM117.501 247.309C117.332 247.482 117.147 247.606 116.945 247.682C116.742 247.757 116.54 247.773 116.337 247.732C116.133 247.689 115.944 247.579 115.77 247.401C115.617 247.245 115.524 247.087 115.489 246.928C115.453 246.768 115.458 246.609 115.505 246.45C115.551 246.291 115.622 246.136 115.717 245.985C115.812 245.83 115.913 245.682 116.021 245.538C116.162 245.351 116.278 245.201 116.368 245.087C116.458 244.971 116.514 244.875 116.533 244.801C116.554 244.725 116.531 244.653 116.465 244.586L116.452 244.571C116.28 244.396 116.1 244.308 115.911 244.306C115.723 244.304 115.535 244.399 115.346 244.593C115.151 244.793 115.04 244.994 115.015 245.195C114.989 245.397 115.002 245.57 115.055 245.716L114.526 245.972C114.434 245.735 114.4 245.511 114.426 245.3C114.451 245.087 114.515 244.891 114.617 244.714C114.719 244.533 114.837 244.375 114.971 244.237C115.057 244.149 115.166 244.059 115.298 243.967C115.43 243.872 115.579 243.803 115.746 243.761C115.914 243.717 116.096 243.724 116.292 243.782C116.487 243.84 116.691 243.978 116.903 244.194L118.662 245.993L118.252 246.413L117.89 246.043L117.869 246.065C117.9 246.152 117.915 246.263 117.916 246.397C117.917 246.531 117.887 246.677 117.826 246.834C117.765 246.992 117.656 247.15 117.501 247.309ZM117.195 246.868C117.357 246.702 117.462 246.53 117.51 246.351C117.558 246.171 117.561 246 117.517 245.839C117.474 245.676 117.397 245.538 117.286 245.425L116.91 245.041C116.914 245.08 116.895 245.138 116.853 245.217C116.811 245.292 116.758 245.376 116.695 245.467C116.631 245.556 116.568 245.642 116.505 245.725C116.443 245.806 116.392 245.871 116.354 245.922C116.262 246.046 116.185 246.171 116.123 246.297C116.062 246.422 116.033 246.544 116.038 246.665C116.043 246.784 116.097 246.896 116.201 247.003C116.344 247.149 116.504 247.205 116.683 247.172C116.861 247.136 117.032 247.035 117.195 246.868ZM119.41 245.228L116.741 242.497L117.137 242.092L117.541 242.504L117.568 242.476C117.485 242.291 117.466 242.091 117.511 241.877C117.556 241.662 117.659 241.473 117.819 241.31C117.849 241.279 117.887 241.241 117.933 241.196C117.98 241.151 118.015 241.118 118.041 241.096L118.458 241.523C118.441 241.534 118.404 241.561 118.347 241.605C118.29 241.646 118.234 241.695 118.18 241.751C118.05 241.883 117.962 242.03 117.914 242.19C117.867 242.347 117.861 242.505 117.897 242.663C117.933 242.818 118.011 242.957 118.131 243.08L119.82 244.808L119.41 245.228ZM121.231 243.365L118.562 240.635L118.972 240.215L121.641 242.946L121.231 243.365ZM118.326 239.966C118.246 240.048 118.149 240.091 118.037 240.094C117.926 240.097 117.832 240.059 117.756 239.981C117.679 239.902 117.642 239.806 117.644 239.693C117.648 239.578 117.69 239.479 117.769 239.397C117.849 239.316 117.945 239.274 118.056 239.271C118.169 239.268 118.263 239.305 118.339 239.383C118.416 239.461 118.452 239.558 118.449 239.673C118.447 239.787 118.405 239.885 118.326 239.966Z" fill="black"/>
<path d="M174.368 233.469V226.111" stroke="black"/>
<path d="M164.451 260.879L160.892 257.238L163.026 255.055L163.408 255.446L161.706 257.188L162.908 258.418L164.451 256.84L164.833 257.231L163.29 258.809L164.882 260.438L164.451 260.879ZM168.246 257.11C167.989 257.373 167.71 257.542 167.41 257.617C167.11 257.689 166.807 257.672 166.501 257.565C166.195 257.456 165.906 257.262 165.632 256.982C165.359 256.702 165.168 256.405 165.059 256.09C164.95 255.772 164.927 255.461 164.99 255.158C165.052 254.852 165.204 254.576 165.445 254.33C165.584 254.188 165.744 254.071 165.926 253.98C166.108 253.888 166.307 253.839 166.522 253.832C166.736 253.824 166.962 253.873 167.198 253.98C167.434 254.086 167.677 254.267 167.926 254.522L168.1 254.699L166.043 256.804L165.688 256.442L167.328 254.763C167.178 254.609 167.013 254.503 166.835 254.444C166.658 254.383 166.48 254.374 166.301 254.417C166.124 254.458 165.961 254.555 165.813 254.707C165.65 254.874 165.549 255.06 165.511 255.265C165.473 255.467 165.486 255.667 165.551 255.864C165.616 256.061 165.722 256.234 165.869 256.385L166.105 256.626C166.307 256.833 166.512 256.972 166.722 257.044C166.932 257.114 167.135 257.122 167.334 257.069C167.53 257.015 167.712 256.903 167.877 256.733C167.985 256.623 168.067 256.508 168.124 256.388C168.181 256.266 168.21 256.141 168.213 256.013C168.214 255.884 168.186 255.754 168.128 255.624L168.635 255.332C168.728 255.512 168.776 255.705 168.779 255.91C168.782 256.114 168.739 256.319 168.651 256.525C168.561 256.73 168.427 256.925 168.246 257.11ZM169.975 255.227L166.416 251.587L166.826 251.167L168.14 252.511L168.175 252.476C168.158 252.397 168.141 252.294 168.122 252.166C168.104 252.036 168.117 251.89 168.161 251.729C168.205 251.566 168.314 251.395 168.487 251.217C168.712 250.987 168.966 250.842 169.25 250.782C169.534 250.721 169.827 250.747 170.129 250.86C170.432 250.972 170.723 251.172 171.003 251.459C171.286 251.748 171.483 252.048 171.594 252.358C171.704 252.668 171.731 252.967 171.674 253.258C171.616 253.547 171.476 253.805 171.254 254.033C171.082 254.208 170.916 254.32 170.757 254.367C170.596 254.413 170.451 254.428 170.322 254.41C170.192 254.391 170.088 254.372 170.009 254.353L169.961 254.403L170.371 254.822L169.975 255.227ZM169.043 253.45C169.245 253.656 169.452 253.808 169.665 253.905C169.877 254.001 170.084 254.035 170.284 254.008C170.483 253.98 170.665 253.881 170.83 253.713C171.001 253.538 171.099 253.345 171.123 253.135C171.148 252.923 171.112 252.709 171.016 252.492C170.919 252.272 170.776 252.066 170.586 251.871C170.399 251.679 170.201 251.536 169.992 251.441C169.784 251.344 169.577 251.31 169.373 251.338C169.17 251.364 168.981 251.466 168.807 251.644C168.64 251.814 168.542 252.001 168.513 252.204C168.483 252.405 168.515 252.613 168.607 252.826C168.699 253.038 168.844 253.246 169.043 253.45ZM172.958 252.175L170.289 249.445L170.685 249.039L171.088 249.452L171.116 249.423C171.033 249.239 171.014 249.039 171.059 248.824C171.104 248.61 171.207 248.421 171.366 248.257C171.397 248.227 171.435 248.189 171.481 248.144C171.528 248.099 171.563 248.065 171.589 248.044L172.006 248.471C171.989 248.481 171.951 248.509 171.895 248.552C171.838 248.594 171.782 248.642 171.728 248.698C171.598 248.831 171.51 248.977 171.462 249.137C171.415 249.295 171.409 249.452 171.445 249.61C171.481 249.765 171.559 249.905 171.679 250.028L173.368 251.756L172.958 252.175ZM175.369 247.476L173.792 245.862L174.202 245.442L176.871 248.172L176.461 248.592L176.009 248.13L175.981 248.158C176.054 248.361 176.072 248.578 176.035 248.811C175.997 249.042 175.877 249.26 175.675 249.467C175.508 249.637 175.324 249.752 175.121 249.81C174.917 249.867 174.704 249.857 174.482 249.781C174.258 249.704 174.033 249.55 173.806 249.317L172.11 247.582L172.52 247.163L174.188 248.869C174.382 249.068 174.592 249.171 174.817 249.179C175.043 249.185 175.241 249.1 175.411 248.926C175.513 248.822 175.591 248.689 175.644 248.528C175.698 248.366 175.708 248.193 175.672 248.009C175.637 247.824 175.536 247.646 175.369 247.476ZM178.47 246.665C178.301 246.838 178.115 246.962 177.914 247.038C177.711 247.113 177.508 247.129 177.306 247.088C177.102 247.045 176.913 246.935 176.739 246.757C176.586 246.601 176.492 246.443 176.458 246.284C176.422 246.124 176.427 245.965 176.473 245.806C176.52 245.647 176.59 245.492 176.685 245.34C176.78 245.186 176.882 245.037 176.989 244.894C177.131 244.707 177.246 244.556 177.337 244.443C177.427 244.326 177.482 244.231 177.502 244.156C177.523 244.08 177.5 244.009 177.434 243.941L177.42 243.927C177.249 243.752 177.069 243.663 176.88 243.662C176.692 243.66 176.504 243.755 176.315 243.948C176.119 244.149 176.009 244.349 175.983 244.551C175.958 244.752 175.971 244.926 176.023 245.072L175.495 245.328C175.402 245.091 175.369 244.867 175.394 244.656C175.42 244.443 175.483 244.247 175.585 244.069C175.687 243.889 175.805 243.73 175.94 243.593C176.026 243.505 176.134 243.415 176.266 243.323C176.399 243.228 176.548 243.159 176.715 243.116C176.883 243.073 177.065 243.08 177.26 243.138C177.456 243.196 177.66 243.333 177.872 243.55L179.63 245.349L179.22 245.769L178.859 245.399L178.838 245.42C178.868 245.508 178.884 245.619 178.885 245.753C178.886 245.887 178.856 246.032 178.795 246.19C178.733 246.348 178.625 246.506 178.47 246.665ZM178.164 246.224C178.326 246.058 178.431 245.885 178.478 245.706C178.527 245.526 178.529 245.356 178.485 245.194C178.442 245.032 178.365 244.894 178.254 244.78L177.879 244.396C177.882 244.435 177.863 244.494 177.822 244.572C177.78 244.648 177.727 244.732 177.663 244.823C177.6 244.912 177.537 244.998 177.474 245.081C177.412 245.161 177.361 245.227 177.323 245.278C177.23 245.401 177.153 245.526 177.092 245.653C177.03 245.778 177.002 245.9 177.007 246.021C177.011 246.14 177.066 246.252 177.17 246.359C177.312 246.505 177.473 246.561 177.651 246.528C177.83 246.492 178.001 246.391 178.164 246.224ZM180.379 244.583L177.71 241.853L178.106 241.448L178.509 241.86L178.537 241.832C178.454 241.647 178.435 241.447 178.48 241.233C178.525 241.018 178.627 240.829 178.787 240.665C178.817 240.635 178.856 240.597 178.902 240.552C178.948 240.507 178.984 240.473 179.01 240.452L179.427 240.879C179.409 240.889 179.372 240.917 179.315 240.961C179.259 241.002 179.203 241.051 179.149 241.106C179.019 241.239 178.93 241.385 178.883 241.545C178.835 241.703 178.83 241.861 178.865 242.018C178.901 242.173 178.98 242.313 179.1 242.436L180.789 244.164L180.379 244.583ZM182.199 242.721L179.531 239.99L179.941 239.571L182.609 242.301L182.199 242.721ZM179.294 239.322C179.214 239.404 179.118 239.446 179.006 239.45C178.895 239.452 178.801 239.414 178.724 239.336C178.648 239.258 178.611 239.162 178.613 239.048C178.617 238.933 178.658 238.835 178.738 238.753C178.818 238.671 178.914 238.629 179.025 238.627C179.137 238.623 179.232 238.661 179.308 238.739C179.385 238.817 179.421 238.914 179.418 239.029C179.415 239.142 179.374 239.24 179.294 239.322Z" fill="black"/>
<path d="M234.107 233.469V226.111" stroke="black"/>
<path d="M222.778 254.43L223.292 253.903L227.455 255.688L227.497 255.645L225.752 251.386L226.267 250.86L229.825 254.501L229.422 254.913L226.718 252.147L226.684 252.183L228.275 256.086L227.886 256.484L224.07 254.856L224.036 254.892L226.739 257.658L226.336 258.07L222.778 254.43ZM231.482 252.934C231.312 253.107 231.127 253.232 230.926 253.307C230.723 253.382 230.52 253.399 230.317 253.357C230.114 253.314 229.925 253.204 229.751 253.026C229.598 252.87 229.504 252.712 229.469 252.554C229.434 252.394 229.439 252.234 229.485 252.075C229.531 251.917 229.602 251.761 229.697 251.61C229.792 251.456 229.893 251.307 230.001 251.164C230.142 250.976 230.258 250.826 230.349 250.712C230.439 250.596 230.494 250.5 230.514 250.426C230.535 250.35 230.512 250.278 230.446 250.211L230.432 250.196C230.261 250.021 230.08 249.933 229.892 249.932C229.704 249.929 229.516 250.025 229.327 250.218C229.131 250.418 229.021 250.619 228.995 250.82C228.97 251.022 228.983 251.196 229.035 251.341L228.507 251.597C228.414 251.36 228.381 251.136 228.406 250.925C228.432 250.712 228.495 250.516 228.597 250.339C228.699 250.159 228.817 250 228.952 249.862C229.037 249.775 229.146 249.685 229.278 249.592C229.41 249.497 229.56 249.429 229.727 249.386C229.895 249.342 230.076 249.349 230.272 249.407C230.468 249.465 230.672 249.603 230.884 249.82L232.642 251.619L232.232 252.038L231.871 251.668L231.85 251.69C231.88 251.777 231.896 251.888 231.897 252.022C231.898 252.156 231.868 252.302 231.806 252.459C231.745 252.617 231.637 252.775 231.482 252.934ZM231.176 252.493C231.338 252.327 231.443 252.155 231.49 251.976C231.539 251.796 231.541 251.625 231.497 251.464C231.454 251.302 231.377 251.164 231.266 251.05L230.891 250.666C230.894 250.705 230.875 250.764 230.833 250.842C230.792 250.918 230.739 251.001 230.675 251.092C230.612 251.181 230.548 251.267 230.486 251.35C230.423 251.431 230.373 251.497 230.335 251.548C230.242 251.671 230.165 251.796 230.104 251.923C230.042 252.047 230.014 252.17 230.019 252.291C230.023 252.409 230.078 252.522 230.182 252.628C230.324 252.774 230.485 252.83 230.663 252.797C230.842 252.762 231.012 252.66 231.176 252.493ZM233.391 250.853L230.722 248.122L231.118 247.717L231.521 248.13L231.549 248.101C231.465 247.916 231.446 247.717 231.492 247.502C231.537 247.288 231.639 247.099 231.799 246.935C231.829 246.904 231.867 246.866 231.914 246.821C231.96 246.776 231.996 246.743 232.022 246.722L232.439 247.148C232.421 247.159 232.384 247.186 232.327 247.23C232.271 247.272 232.215 247.32 232.161 247.376C232.031 247.509 231.942 247.655 231.895 247.815C231.847 247.973 231.841 248.13 231.877 248.288C231.913 248.443 231.991 248.582 232.112 248.706L233.801 250.433L233.391 250.853ZM236.305 247.986C236.047 248.249 235.769 248.418 235.469 248.492C235.169 248.564 234.866 248.547 234.56 248.441C234.254 248.332 233.965 248.137 233.691 247.858C233.418 247.578 233.227 247.28 233.118 246.965C233.009 246.648 232.986 246.337 233.048 246.034C233.111 245.728 233.263 245.452 233.504 245.205C233.643 245.063 233.803 244.946 233.985 244.855C234.167 244.764 234.366 244.715 234.581 244.708C234.795 244.699 235.021 244.748 235.257 244.855C235.493 244.962 235.736 245.143 235.985 245.397L236.159 245.575L234.101 247.68L233.747 247.317L235.387 245.639C235.237 245.485 235.072 245.378 234.894 245.319C234.716 245.259 234.539 245.25 234.36 245.292C234.183 245.334 234.02 245.43 233.872 245.582C233.709 245.749 233.608 245.935 233.57 246.14C233.531 246.343 233.545 246.543 233.61 246.739C233.675 246.936 233.781 247.11 233.928 247.26L234.164 247.502C234.366 247.708 234.571 247.847 234.781 247.92C234.99 247.99 235.194 247.998 235.392 247.945C235.589 247.89 235.771 247.778 235.936 247.609C236.044 247.498 236.126 247.384 236.183 247.264C236.24 247.142 236.269 247.017 236.272 246.889C236.273 246.76 236.244 246.63 236.186 246.499L236.694 246.208C236.787 246.388 236.835 246.581 236.838 246.786C236.84 246.989 236.798 247.195 236.709 247.401C236.62 247.606 236.485 247.801 236.305 247.986ZM236.47 242.242L236.817 242.598L235.434 244.013L235.087 243.657L236.47 242.242ZM234.85 242.59L235.26 242.171L237.804 244.773C237.92 244.892 238.024 244.964 238.115 244.988C238.207 245.011 238.289 245.005 238.362 244.971C238.435 244.934 238.502 244.885 238.562 244.823C238.607 244.777 238.642 244.737 238.666 244.702C238.689 244.667 238.708 244.638 238.722 244.617L239.173 244.908C239.156 244.948 239.128 244.998 239.088 245.06C239.05 245.122 238.993 245.193 238.916 245.271C238.8 245.39 238.662 245.48 238.501 245.543C238.341 245.605 238.174 245.621 237.999 245.591C237.825 245.56 237.661 245.465 237.505 245.307L234.85 242.59Z" fill="black"/>
<path d="M293.847 233.469V226.111" stroke="black"/>
<path d="M287.743 256.364L287.292 256.826L285.04 251.849L285.485 251.394L290.35 253.697L289.898 254.16L285.839 252.183L285.811 252.211L287.743 256.364ZM286.52 254.771L288.341 252.908L288.723 253.299L286.902 255.162L286.52 254.771ZM291.849 254.211L288.18 250.457L288.576 250.051L289 250.485L289.048 250.435C289.032 250.357 289.015 250.254 288.996 250.126C288.978 249.996 288.99 249.85 289.035 249.689C289.079 249.525 289.187 249.355 289.361 249.177C289.586 248.947 289.84 248.802 290.124 248.741C290.408 248.681 290.701 248.707 291.003 248.819C291.306 248.932 291.597 249.132 291.877 249.419C292.16 249.708 292.357 250.008 292.468 250.318C292.578 250.627 292.605 250.927 292.548 251.218C292.49 251.507 292.35 251.765 292.127 251.993C291.956 252.168 291.79 252.279 291.63 252.327C291.469 252.373 291.325 252.387 291.196 252.369C291.066 252.35 290.962 252.332 290.883 252.313L290.849 252.348L292.259 253.792L291.849 254.211ZM289.917 251.41C290.119 251.616 290.326 251.767 290.539 251.865C290.751 251.961 290.957 251.995 291.158 251.968C291.357 251.939 291.539 251.841 291.703 251.673C291.875 251.497 291.973 251.305 291.997 251.095C292.021 250.883 291.985 250.668 291.889 250.451C291.793 250.232 291.65 250.025 291.46 249.831C291.273 249.639 291.074 249.496 290.866 249.401C290.657 249.304 290.451 249.269 290.247 249.298C290.043 249.324 289.855 249.426 289.681 249.603C289.514 249.774 289.416 249.961 289.387 250.163C289.357 250.365 289.388 250.572 289.481 250.786C289.573 250.998 289.718 251.206 289.917 251.41ZM293.83 250.137L291.161 247.406L291.557 247.001L291.961 247.413L291.988 247.385C291.905 247.2 291.886 247 291.931 246.786C291.976 246.571 292.079 246.382 292.239 246.219C292.269 246.188 292.307 246.15 292.353 246.105C292.4 246.06 292.436 246.027 292.461 246.005L292.878 246.432C292.861 246.443 292.824 246.47 292.767 246.514C292.71 246.555 292.654 246.604 292.6 246.66C292.47 246.792 292.382 246.939 292.334 247.099C292.287 247.256 292.281 247.414 292.317 247.572C292.353 247.727 292.431 247.866 292.551 247.989L294.24 249.717L293.83 250.137ZM295.651 248.274L292.982 245.544L293.392 245.124L296.061 247.855L295.651 248.274ZM292.746 244.875C292.666 244.957 292.569 245 292.457 245.003C292.346 245.006 292.252 244.968 292.176 244.89C292.099 244.811 292.062 244.715 292.064 244.602C292.068 244.487 292.11 244.388 292.19 244.307C292.269 244.225 292.365 244.183 292.476 244.18C292.589 244.177 292.683 244.214 292.759 244.292C292.836 244.371 292.872 244.467 292.869 244.582C292.867 244.696 292.825 244.794 292.746 244.875ZM293.663 243.026L297.222 246.667L296.812 247.086L293.253 243.446L293.663 243.026Z" fill="black"/>
<path d="M353.586 233.469V226.111" stroke="black"/>
<path d="M344.988 252.248L345.503 251.722L349.666 253.506L349.708 253.464L347.963 249.204L348.478 248.678L352.036 252.319L351.633 252.731L348.929 249.965L348.895 250.001L350.486 253.905L350.097 254.303L346.281 252.674L346.246 252.71L348.95 255.476L348.547 255.888L344.988 252.248ZM354.019 250.404C353.762 250.667 353.483 250.836 353.183 250.911C352.883 250.983 352.58 250.966 352.275 250.859C351.969 250.75 351.679 250.556 351.406 250.276C351.132 249.996 350.941 249.699 350.832 249.384C350.724 249.066 350.7 248.755 350.763 248.452C350.825 248.146 350.977 247.87 351.218 247.624C351.357 247.481 351.518 247.365 351.699 247.273C351.881 247.182 352.08 247.133 352.295 247.126C352.51 247.118 352.735 247.167 352.971 247.273C353.208 247.38 353.45 247.561 353.699 247.816L353.873 247.993L351.816 250.098L351.461 249.736L353.102 248.057C352.951 247.903 352.787 247.797 352.608 247.737C352.431 247.677 352.253 247.668 352.075 247.711C351.898 247.752 351.735 247.849 351.587 248.001C351.423 248.168 351.322 248.354 351.284 248.559C351.246 248.761 351.259 248.961 351.324 249.158C351.389 249.355 351.495 249.528 351.642 249.679L351.878 249.92C352.08 250.127 352.286 250.266 352.495 250.338C352.705 250.408 352.909 250.416 353.107 250.363C353.304 250.309 353.485 250.197 353.651 250.027C353.758 249.917 353.841 249.802 353.897 249.682C353.954 249.56 353.984 249.435 353.986 249.307C353.987 249.178 353.959 249.048 353.901 248.918L354.408 248.626C354.501 248.806 354.549 248.999 354.553 249.204C354.555 249.408 354.512 249.613 354.424 249.819C354.335 250.024 354.2 250.219 354.019 250.404ZM355.692 248.578L353.023 245.848L353.434 245.428L356.102 248.159L355.692 248.578ZM352.787 245.179C352.707 245.261 352.611 245.304 352.499 245.307C352.388 245.31 352.294 245.272 352.217 245.194C352.141 245.115 352.104 245.019 352.106 244.906C352.11 244.791 352.151 244.692 352.231 244.611C352.311 244.529 352.407 244.487 352.518 244.484C352.63 244.481 352.725 244.518 352.801 244.596C352.878 244.675 352.914 244.771 352.911 244.886C352.908 245 352.867 245.098 352.787 245.179Z" fill="black"/>
<path d="M413.325 233.469V226.111" stroke="black"/>
<path d="M405.334 251.014L405.765 250.574L408.309 253.176C408.536 253.408 408.687 253.648 408.762 253.896C408.837 254.144 408.84 254.387 408.771 254.627C408.701 254.866 408.563 255.091 408.357 255.302C408.163 255.501 407.954 255.642 407.732 255.725C407.508 255.807 407.287 255.825 407.068 255.779C406.849 255.732 406.649 255.616 406.467 255.43L406.891 254.996C406.992 255.099 407.105 255.164 407.23 255.19C407.355 255.214 407.482 255.202 407.612 255.155C407.742 255.107 407.863 255.026 407.975 254.911C408.099 254.784 408.178 254.65 408.213 254.507C408.248 254.365 408.237 254.22 408.182 254.07C408.126 253.919 408.025 253.767 407.878 253.617L405.334 251.014ZM410.722 250.55L409.144 248.936L409.554 248.517L412.223 251.247L411.813 251.667L411.362 251.205L411.334 251.233C411.407 251.436 411.425 251.653 411.388 251.885C411.349 252.117 411.23 252.335 411.028 252.541C410.861 252.712 410.676 252.826 410.474 252.885C410.27 252.941 410.057 252.932 409.834 252.856C409.611 252.779 409.385 252.624 409.158 252.392L407.462 250.657L407.873 250.238L409.541 251.944C409.735 252.143 409.945 252.246 410.17 252.253C410.395 252.259 410.594 252.175 410.764 252.001C410.866 251.897 410.943 251.764 410.997 251.603C411.051 251.44 411.06 251.267 411.024 251.084C410.99 250.899 410.889 250.721 410.722 250.55ZM411.779 248.417L413.385 250.059L412.974 250.479L410.306 247.748L410.702 247.343L411.119 247.77L411.154 247.734C411.081 247.532 411.067 247.323 411.112 247.109C411.156 246.893 411.279 246.682 411.48 246.476C411.661 246.291 411.856 246.167 412.066 246.104C412.274 246.04 412.491 246.046 412.716 246.122C412.939 246.197 413.164 246.35 413.392 246.582L415.087 248.317L414.677 248.737L413.009 247.03C412.8 246.816 412.582 246.704 412.356 246.696C412.129 246.687 411.92 246.779 411.73 246.973C411.599 247.107 411.511 247.256 411.465 247.42C411.419 247.582 411.422 247.749 411.471 247.921C411.521 248.093 411.624 248.258 411.779 248.417ZM415.837 247.551L413.168 244.82L413.578 244.401L416.247 247.131L415.837 247.551ZM412.931 244.152C412.852 244.234 412.755 244.276 412.643 244.28C412.532 244.282 412.438 244.244 412.362 244.166C412.285 244.088 412.248 243.992 412.25 243.878C412.254 243.763 412.296 243.665 412.375 243.583C412.455 243.501 412.551 243.459 412.662 243.457C412.775 243.453 412.869 243.491 412.945 243.569C413.022 243.647 413.058 243.744 413.055 243.859C413.053 243.972 413.011 244.07 412.931 244.152Z" fill="black"/>
<path d="M473.065 233.469V226.111" stroke="black"/>
<path d="M465.924 250.144L466.355 249.703L468.898 252.306C469.125 252.538 469.277 252.778 469.352 253.026C469.427 253.274 469.43 253.517 469.361 253.756C469.291 253.996 469.153 254.221 468.947 254.432C468.752 254.631 468.544 254.772 468.322 254.855C468.098 254.937 467.877 254.955 467.658 254.908C467.439 254.862 467.238 254.746 467.057 254.56L467.481 254.126C467.581 254.229 467.694 254.294 467.819 254.32C467.944 254.344 468.072 254.332 468.202 254.284C468.331 254.237 468.452 254.156 468.565 254.041C468.689 253.914 468.768 253.78 468.803 253.637C468.838 253.495 468.827 253.349 468.772 253.2C468.716 253.048 468.615 252.897 468.468 252.747L465.924 250.144ZM471.312 249.68L469.734 248.066L470.144 247.647L472.813 250.377L472.403 250.797L471.951 250.335L471.924 250.363C471.997 250.566 472.014 250.783 471.977 251.015C471.939 251.246 471.819 251.465 471.618 251.671C471.451 251.842 471.266 251.956 471.063 252.014C470.86 252.071 470.646 252.062 470.424 251.986C470.2 251.909 469.975 251.754 469.748 251.522L468.052 249.787L468.462 249.367L470.13 251.074C470.325 251.273 470.535 251.376 470.759 251.383C470.985 251.389 471.183 251.305 471.354 251.131C471.456 251.027 471.533 250.894 471.586 250.733C471.641 250.57 471.65 250.397 471.614 250.214C471.58 250.029 471.479 249.851 471.312 249.68ZM470.416 245.549L473.974 249.189L473.564 249.609L470.006 245.968L470.416 245.549ZM474.725 248.421L472.056 245.69L472.467 245.271L475.135 248.001L474.725 248.421ZM471.82 245.022C471.74 245.104 471.644 245.146 471.532 245.15C471.421 245.152 471.327 245.114 471.25 245.036C471.174 244.958 471.137 244.862 471.139 244.748C471.143 244.633 471.184 244.535 471.264 244.453C471.344 244.371 471.44 244.329 471.551 244.327C471.663 244.323 471.758 244.361 471.834 244.439C471.911 244.517 471.947 244.614 471.944 244.729C471.941 244.842 471.9 244.94 471.82 245.022Z" fill="black"/>
<path d="M532.804 233.469V226.111" stroke="black"/>
<path d="M522.484 260.678L522.032 261.14L519.781 256.163L520.225 255.708L525.091 258.011L524.639 258.474L520.58 256.497L520.552 256.525L522.484 260.678ZM521.261 259.085L523.082 257.222L523.464 257.613L521.643 259.476L521.261 259.085ZM527.723 257.48C527.525 257.683 527.329 257.831 527.136 257.924C526.943 258.019 526.759 258.073 526.581 258.086C526.407 258.099 526.245 258.087 526.097 258.049L526.194 257.48C526.28 257.492 526.382 257.501 526.501 257.507C526.622 257.514 526.755 257.491 526.899 257.437C527.047 257.384 527.201 257.275 527.362 257.11C527.577 256.89 527.703 256.655 527.739 256.404C527.775 256.154 527.681 255.916 527.459 255.688L526.917 255.133L526.882 255.169C526.901 255.25 526.918 255.355 526.934 255.485C526.95 255.613 526.935 255.759 526.887 255.921C526.84 256.081 526.729 256.25 526.555 256.428C526.34 256.648 526.095 256.794 525.822 256.865C525.55 256.935 525.267 256.921 524.972 256.824C524.679 256.726 524.394 256.534 524.116 256.25C523.842 255.97 523.652 255.677 523.546 255.372C523.438 255.065 523.414 254.767 523.475 254.478C523.534 254.187 523.676 253.927 523.9 253.697C524.074 253.519 524.241 253.408 524.401 253.363C524.561 253.316 524.704 253.301 524.832 253.32C524.959 253.337 525.061 253.353 525.137 253.37L525.179 253.327L524.755 252.894L525.151 252.488L527.897 255.297C528.126 255.532 528.261 255.776 528.3 256.029C528.342 256.283 528.309 256.534 528.201 256.781C528.095 257.029 527.936 257.262 527.723 257.48ZM526.243 255.994C526.407 255.826 526.508 255.645 526.547 255.452C526.585 255.258 526.563 255.059 526.481 254.854C526.398 254.649 526.259 254.446 526.062 254.245C525.87 254.048 525.671 253.904 525.466 253.813C525.261 253.721 525.06 253.691 524.863 253.722C524.666 253.753 524.484 253.854 524.317 254.024C524.144 254.202 524.043 254.395 524.015 254.604C523.988 254.811 524.02 255.02 524.111 255.231C524.202 255.441 524.338 255.638 524.519 255.823C524.704 256.013 524.897 256.151 525.098 256.237C525.298 256.322 525.496 256.346 525.692 256.312C525.888 256.275 526.071 256.169 526.243 255.994ZM529.162 251.614L527.584 250L527.994 249.58L530.663 252.311L530.253 252.73L529.801 252.268L529.773 252.296C529.846 252.499 529.864 252.716 529.827 252.949C529.789 253.18 529.669 253.398 529.468 253.605C529.301 253.775 529.116 253.89 528.913 253.948C528.709 254.005 528.496 253.995 528.274 253.919C528.05 253.842 527.825 253.688 527.598 253.455L525.902 251.72L526.312 251.301L527.98 253.007C528.175 253.206 528.384 253.31 528.609 253.317C528.835 253.323 529.033 253.238 529.203 253.064C529.305 252.96 529.383 252.827 529.436 252.666C529.491 252.504 529.5 252.331 529.464 252.147C529.429 251.962 529.329 251.784 529.162 251.614ZM531.233 247.489L530.969 247.973C530.885 247.934 530.791 247.907 530.688 247.894C530.585 247.879 530.476 247.891 530.361 247.93C530.246 247.969 530.129 248.05 530.01 248.172C529.847 248.339 529.748 248.517 529.715 248.705C529.681 248.891 529.722 249.043 529.836 249.16C529.938 249.264 530.056 249.309 530.189 249.293C530.322 249.278 530.487 249.21 530.684 249.089L531.178 248.783C531.474 248.598 531.741 248.507 531.977 248.51C532.212 248.511 532.423 248.607 532.61 248.798C532.762 248.954 532.855 249.139 532.888 249.352C532.921 249.564 532.894 249.786 532.808 250.017C532.721 250.248 532.574 250.47 532.366 250.682C532.094 250.96 531.81 251.13 531.513 251.192C531.217 251.254 530.931 251.193 530.656 251.009L530.948 250.511C531.129 250.62 531.307 250.659 531.482 250.627C531.658 250.594 531.83 250.491 531.998 250.319C532.189 250.124 532.3 249.927 532.332 249.729C532.363 249.529 532.321 249.37 532.206 249.253C532.114 249.158 532.004 249.112 531.876 249.114C531.748 249.115 531.601 249.168 531.435 249.274L530.886 249.622C530.584 249.813 530.314 249.905 530.078 249.898C529.842 249.888 529.631 249.789 529.447 249.601C529.297 249.447 529.206 249.267 529.174 249.062C529.144 248.856 529.17 248.644 529.251 248.426C529.333 248.207 529.468 248.001 529.656 247.809C529.92 247.539 530.185 247.386 530.451 247.351C530.719 247.314 530.98 247.36 531.233 247.489ZM532.462 245.009L532.81 245.364L531.427 246.779L531.079 246.424L532.462 245.009ZM530.843 245.357L531.253 244.938L533.797 247.54C533.913 247.659 534.016 247.73 534.108 247.755C534.199 247.778 534.282 247.772 534.354 247.738C534.427 247.701 534.494 247.652 534.554 247.59C534.599 247.544 534.634 247.504 534.659 247.469C534.682 247.434 534.7 247.405 534.714 247.384L535.166 247.675C535.149 247.714 535.12 247.765 535.081 247.826C535.043 247.889 534.985 247.96 534.909 248.038C534.793 248.157 534.655 248.247 534.493 248.31C534.334 248.372 534.166 248.388 533.991 248.358C533.818 248.327 533.653 248.232 533.498 248.074L530.843 245.357ZM536.339 244.271L534.761 242.657L535.171 242.238L537.84 244.968L537.43 245.388L536.978 244.925L536.95 244.954C537.023 245.156 537.041 245.374 537.004 245.606C536.966 245.837 536.846 246.056 536.645 246.262C536.478 246.433 536.293 246.547 536.09 246.605C535.886 246.662 535.673 246.653 535.451 246.577C535.227 246.5 535.002 246.345 534.775 246.113L533.079 244.378L533.489 243.958L535.157 245.665C535.352 245.864 535.562 245.967 535.786 245.974C536.012 245.98 536.21 245.896 536.38 245.722C536.482 245.617 536.56 245.485 536.613 245.324C536.668 245.161 536.677 244.988 536.641 244.804C536.606 244.62 536.506 244.442 536.339 244.271ZM538.41 240.147L538.146 240.63C538.062 240.591 537.968 240.565 537.865 240.552C537.762 240.537 537.653 240.548 537.538 240.587C537.423 240.627 537.306 240.707 537.187 240.829C537.024 240.996 536.925 241.174 536.892 241.363C536.858 241.549 536.899 241.7 537.013 241.818C537.115 241.922 537.233 241.966 537.366 241.951C537.499 241.936 537.664 241.867 537.861 241.746L538.355 241.441C538.651 241.256 538.918 241.165 539.154 241.167C539.389 241.168 539.6 241.264 539.787 241.455C539.939 241.611 540.032 241.796 540.065 242.01C540.098 242.222 540.072 242.443 539.985 242.674C539.898 242.906 539.751 243.127 539.543 243.339C539.271 243.618 538.987 243.788 538.69 243.849C538.394 243.911 538.108 243.85 537.834 243.666L538.125 243.169C538.306 243.278 538.484 243.316 538.659 243.284C538.835 243.251 539.007 243.148 539.175 242.977C539.366 242.781 539.477 242.584 539.509 242.386C539.54 242.186 539.498 242.027 539.383 241.91C539.291 241.815 539.181 241.769 539.053 241.771C538.925 241.773 538.778 241.826 538.612 241.931L538.063 242.28C537.761 242.471 537.491 242.562 537.255 242.555C537.019 242.546 536.808 242.447 536.624 242.258C536.474 242.104 536.383 241.925 536.351 241.72C536.321 241.514 536.347 241.301 536.428 241.083C536.51 240.864 536.645 240.659 536.833 240.467C537.097 240.196 537.362 240.044 537.629 240.008C537.896 239.971 538.157 240.017 538.41 240.147Z" fill="black"/>
<path d="M592.544 233.469V226.111" stroke="black"/>
<path d="M578.633 259.503C578.436 259.345 578.215 259.291 577.969 259.343C577.724 259.395 577.493 259.532 577.278 259.752C577.12 259.913 577.008 260.08 576.941 260.253C576.875 260.425 576.853 260.591 576.876 260.749C576.901 260.907 576.97 261.044 577.083 261.16C577.178 261.257 577.283 261.318 577.396 261.341C577.51 261.363 577.625 261.36 577.742 261.333C577.858 261.304 577.969 261.264 578.077 261.213C578.184 261.161 578.279 261.11 578.362 261.061L578.821 260.79C578.938 260.72 579.075 260.649 579.231 260.577C579.388 260.504 579.556 260.451 579.735 260.421C579.913 260.387 580.094 260.395 580.277 260.442C580.46 260.489 580.635 260.598 580.802 260.769C580.994 260.966 581.117 261.195 581.172 261.457C581.227 261.718 581.205 261.993 581.104 262.284C581.004 262.573 580.818 262.857 580.545 263.137C580.29 263.398 580.028 263.581 579.759 263.688C579.492 263.793 579.231 263.825 578.977 263.784C578.725 263.741 578.494 263.627 578.286 263.443L578.73 262.988C578.876 263.113 579.033 263.181 579.2 263.19C579.366 263.197 579.532 263.161 579.697 263.08C579.861 262.997 580.014 262.883 580.155 262.739C580.32 262.57 580.441 262.392 580.518 262.204C580.595 262.014 580.623 261.831 580.604 261.654C580.583 261.477 580.507 261.321 580.378 261.189C580.26 261.068 580.13 261.003 579.99 260.995C579.85 260.986 579.703 261.014 579.549 261.077C579.395 261.139 579.238 261.217 579.078 261.309L578.515 261.629C578.157 261.832 577.823 261.94 577.512 261.955C577.202 261.969 576.927 261.853 576.687 261.608C576.488 261.404 576.368 261.171 576.327 260.909C576.287 260.645 576.317 260.377 576.418 260.106C576.519 259.832 576.682 259.579 576.91 259.347C577.139 259.112 577.384 258.946 577.645 258.847C577.904 258.748 578.157 258.717 578.402 258.755C578.649 258.792 578.865 258.899 579.05 259.077L578.633 259.503ZM583.595 260.002C583.338 260.265 583.06 260.433 582.76 260.508C582.459 260.58 582.157 260.563 581.851 260.457C581.545 260.348 581.255 260.153 580.982 259.874C580.709 259.594 580.517 259.296 580.409 258.981C580.3 258.664 580.277 258.353 580.339 258.05C580.402 257.744 580.553 257.468 580.794 257.221C580.933 257.079 581.094 256.962 581.276 256.871C581.457 256.78 581.656 256.731 581.872 256.724C582.086 256.715 582.311 256.764 582.548 256.871C582.784 256.978 583.027 257.158 583.276 257.413L583.449 257.591L581.392 259.696L581.038 259.333L582.678 257.655C582.527 257.501 582.363 257.394 582.184 257.335C582.007 257.275 581.829 257.266 581.651 257.308C581.474 257.35 581.311 257.446 581.163 257.598C580.999 257.765 580.899 257.951 580.86 258.156C580.822 258.359 580.835 258.559 580.9 258.755C580.965 258.952 581.071 259.126 581.218 259.276L581.455 259.518C581.656 259.724 581.862 259.863 582.071 259.936C582.281 260.006 582.485 260.014 582.683 259.961C582.88 259.906 583.061 259.794 583.227 259.625C583.335 259.514 583.417 259.399 583.474 259.28C583.53 259.158 583.56 259.033 583.562 258.905C583.563 258.776 583.535 258.646 583.477 258.515L583.984 258.224C584.077 258.404 584.125 258.597 584.129 258.802C584.131 259.005 584.088 259.21 584 259.417C583.911 259.622 583.776 259.817 583.595 260.002ZM586.269 259.2L582.6 255.445L582.996 255.04L583.42 255.474L583.468 255.424C583.452 255.346 583.435 255.243 583.416 255.115C583.398 254.984 583.411 254.839 583.455 254.677C583.499 254.514 583.607 254.343 583.781 254.166C584.006 253.936 584.26 253.79 584.544 253.73C584.828 253.67 585.121 253.696 585.423 253.808C585.726 253.921 586.017 254.12 586.297 254.407C586.58 254.696 586.777 254.996 586.888 255.307C586.998 255.616 587.025 255.916 586.968 256.206C586.91 256.495 586.77 256.754 586.547 256.981C586.376 257.157 586.21 257.268 586.05 257.316C585.889 257.362 585.745 257.376 585.616 257.358C585.486 257.339 585.382 257.32 585.303 257.301L585.269 257.337L586.679 258.78L586.269 259.2ZM584.337 256.398C584.539 256.604 584.746 256.756 584.959 256.853C585.171 256.949 585.377 256.984 585.578 256.956C585.777 256.928 585.959 256.83 586.123 256.661C586.295 256.486 586.393 256.293 586.417 256.084C586.441 255.871 586.406 255.657 586.309 255.44C586.213 255.221 586.07 255.014 585.88 254.82C585.693 254.628 585.494 254.484 585.286 254.39C585.077 254.292 584.871 254.258 584.667 254.286C584.463 254.312 584.275 254.414 584.101 254.592C583.934 254.763 583.836 254.949 583.807 255.152C583.777 255.354 583.808 255.561 583.901 255.774C583.993 255.986 584.138 256.194 584.337 256.398ZM586.742 251.208L587.09 251.563L585.706 252.978L585.359 252.623L586.742 251.208ZM585.123 251.556L585.533 251.136L588.076 253.739C588.192 253.857 588.296 253.929 588.388 253.954C588.479 253.977 588.561 253.971 588.634 253.936C588.707 253.899 588.774 253.85 588.834 253.789C588.879 253.742 588.914 253.702 588.938 253.668C588.961 253.632 588.98 253.604 588.994 253.582L589.446 253.874C589.428 253.913 589.4 253.963 589.361 254.025C589.322 254.088 589.265 254.158 589.189 254.237C589.073 254.355 588.934 254.446 588.773 254.509C588.613 254.57 588.446 254.586 588.271 254.557C588.097 254.526 587.933 254.431 587.778 254.272L585.123 251.556ZM591.174 252.248C590.917 252.511 590.638 252.68 590.338 252.755C590.038 252.827 589.735 252.81 589.429 252.703C589.123 252.594 588.834 252.4 588.56 252.12C588.287 251.841 588.096 251.543 587.987 251.228C587.878 250.91 587.855 250.6 587.918 250.296C587.98 249.991 588.132 249.715 588.373 249.468C588.512 249.326 588.672 249.209 588.854 249.118C589.036 249.027 589.235 248.977 589.45 248.97C589.664 248.962 589.89 249.011 590.126 249.118C590.362 249.225 590.605 249.405 590.854 249.66L591.028 249.838L588.97 251.943L588.616 251.58L590.256 249.902C590.106 249.748 589.941 249.641 589.763 249.582C589.586 249.521 589.408 249.513 589.229 249.555C589.052 249.597 588.889 249.693 588.741 249.845C588.578 250.012 588.477 250.198 588.439 250.403C588.401 250.606 588.414 250.805 588.479 251.002C588.544 251.199 588.65 251.373 588.797 251.523L589.033 251.765C589.235 251.971 589.44 252.11 589.65 252.183C589.86 252.252 590.063 252.261 590.261 252.207C590.458 252.153 590.64 252.041 590.805 251.871C590.913 251.761 590.995 251.646 591.052 251.527C591.109 251.405 591.138 251.28 591.141 251.152C591.142 251.022 591.113 250.893 591.056 250.762L591.563 250.471C591.656 250.651 591.704 250.843 591.707 251.048C591.709 251.252 591.667 251.457 591.579 251.663C591.489 251.869 591.354 252.063 591.174 252.248ZM592.847 250.423L590.178 247.692L590.574 247.287L590.991 247.714L591.026 247.678C590.939 247.475 590.918 247.27 590.963 247.063C591.007 246.854 591.116 246.661 591.29 246.483C591.466 246.303 591.653 246.194 591.85 246.156C592.047 246.116 592.249 246.135 592.458 246.213L592.486 246.185C592.416 245.974 592.409 245.757 592.465 245.534C592.519 245.31 592.642 245.1 592.833 244.905C593.072 244.661 593.342 244.538 593.643 244.535C593.943 244.532 594.25 244.69 594.564 245.012L596.35 246.839L595.94 247.259L594.154 245.431C593.957 245.23 593.762 245.141 593.57 245.164C593.378 245.188 593.208 245.275 593.062 245.424C592.875 245.616 592.786 245.823 592.797 246.044C592.806 246.265 592.897 246.463 593.069 246.64L594.807 248.418L594.39 248.844L592.562 246.974C592.41 246.819 592.239 246.744 592.048 246.75C591.855 246.755 591.682 246.837 591.526 246.995C591.42 247.104 591.349 247.235 591.313 247.388C591.278 247.54 591.283 247.696 591.327 247.858C591.371 248.016 591.458 248.163 591.589 248.297L593.257 250.003L592.847 250.423ZM597.155 246.015L593.597 242.374L594.007 241.955L595.32 243.299L595.355 243.263C595.339 243.185 595.322 243.082 595.303 242.954C595.285 242.824 595.297 242.678 595.341 242.517C595.385 242.353 595.494 242.182 595.668 242.005C595.893 241.775 596.147 241.63 596.431 241.569C596.715 241.509 597.008 241.535 597.31 241.647C597.612 241.76 597.904 241.96 598.184 242.246C598.467 242.536 598.664 242.835 598.775 243.146C598.885 243.455 598.911 243.755 598.855 244.045C598.797 244.335 598.657 244.593 598.434 244.82C598.263 244.996 598.097 245.107 597.937 245.155C597.776 245.201 597.631 245.215 597.503 245.197C597.373 245.178 597.269 245.159 597.19 245.14L597.141 245.19L597.552 245.61L597.155 246.015ZM596.224 244.237C596.426 244.444 596.633 244.595 596.846 244.692C597.058 244.788 597.264 244.823 597.465 244.796C597.664 244.767 597.846 244.669 598.01 244.501C598.182 244.325 598.28 244.133 598.304 243.923C598.328 243.711 598.292 243.496 598.196 243.279C598.1 243.06 597.957 242.853 597.767 242.659C597.579 242.467 597.381 242.323 597.173 242.229C596.964 242.132 596.758 242.097 596.554 242.126C596.35 242.152 596.161 242.254 595.988 242.431C595.821 242.602 595.723 242.789 595.694 242.991C595.664 243.193 595.695 243.4 595.788 243.613C595.879 243.826 596.025 244.034 596.224 244.237ZM601.313 241.875C601.056 242.138 600.778 242.307 600.478 242.382C600.178 242.454 599.875 242.437 599.569 242.33C599.263 242.221 598.973 242.027 598.7 241.747C598.427 241.467 598.236 241.17 598.127 240.855C598.018 240.537 597.995 240.226 598.057 239.923C598.12 239.617 598.271 239.341 598.512 239.095C598.651 238.952 598.812 238.836 598.994 238.745C599.176 238.653 599.374 238.604 599.59 238.597C599.804 238.589 600.029 238.638 600.266 238.745C600.502 238.851 600.745 239.032 600.994 239.287L601.167 239.464L599.11 241.569L598.756 241.207L600.396 239.528C600.245 239.374 600.081 239.268 599.902 239.208C599.725 239.148 599.547 239.139 599.369 239.182C599.192 239.223 599.029 239.32 598.881 239.472C598.717 239.639 598.617 239.825 598.578 240.03C598.54 240.232 598.554 240.432 598.618 240.629C598.683 240.826 598.789 240.999 598.936 241.15L599.173 241.391C599.374 241.598 599.58 241.737 599.79 241.809C599.999 241.879 600.203 241.887 600.401 241.834C600.598 241.78 600.779 241.668 600.945 241.498C601.053 241.388 601.135 241.273 601.192 241.153C601.248 241.031 601.278 240.906 601.28 240.778C601.282 240.649 601.253 240.519 601.195 240.389L601.703 240.097C601.795 240.277 601.843 240.47 601.847 240.675C601.849 240.879 601.806 241.084 601.718 241.29C601.629 241.495 601.494 241.69 601.313 241.875ZM602.987 240.049L600.318 237.319L600.714 236.914L601.117 237.326L601.145 237.298C601.061 237.113 601.042 236.913 601.087 236.698C601.133 236.484 601.235 236.295 601.395 236.131C601.425 236.101 601.463 236.063 601.51 236.018C601.556 235.973 601.592 235.939 601.617 235.918L602.034 236.345C602.017 236.355 601.98 236.383 601.923 236.426C601.866 236.468 601.811 236.517 601.756 236.572C601.627 236.705 601.538 236.851 601.491 237.011C601.443 237.169 601.437 237.327 601.473 237.484C601.509 237.639 601.587 237.779 601.708 237.902L603.397 239.63L602.987 240.049Z" fill="black"/>
<path d="M652.283 233.469V226.111" stroke="black"/>
<path d="M643.69 255.884C644.065 256.268 644.321 256.669 644.459 257.087C644.597 257.506 644.622 257.912 644.534 258.305C644.446 258.698 644.25 259.05 643.947 259.361C643.643 259.671 643.299 259.872 642.915 259.962C642.53 260.052 642.133 260.026 641.724 259.885C641.315 259.744 640.923 259.482 640.548 259.098C640.173 258.714 639.916 258.313 639.778 257.894C639.64 257.476 639.616 257.07 639.704 256.677C639.792 256.283 639.987 255.931 640.291 255.621C640.594 255.31 640.938 255.11 641.323 255.02C641.708 254.93 642.104 254.955 642.513 255.096C642.922 255.237 643.314 255.5 643.69 255.884ZM643.273 256.31C642.964 255.995 642.653 255.782 642.338 255.671C642.024 255.558 641.725 255.535 641.441 255.603C641.158 255.669 640.909 255.813 640.694 256.033C640.479 256.254 640.338 256.509 640.272 256.799C640.207 257.088 640.229 257.394 640.338 257.717C640.448 258.038 640.657 258.356 640.965 258.671C641.273 258.986 641.584 259.2 641.898 259.313C642.213 259.424 642.512 259.447 642.795 259.38C643.079 259.313 643.328 259.169 643.544 258.948C643.759 258.728 643.899 258.473 643.964 258.184C644.03 257.894 644.008 257.588 643.898 257.267C643.789 256.944 643.581 256.626 643.273 256.31ZM645.547 255.633L645.033 255.121L645.116 255.036L645.095 252.625L645.603 252.106L645.617 254.666L645.582 254.702L645.547 255.633ZM646.138 257.02L642.579 253.379L642.989 252.96L646.548 256.6L646.138 257.02ZM647.834 255.285L645.471 255L645.478 254.41L648.355 254.751L647.834 255.285ZM647.291 250.379L647.639 250.734L646.256 252.149L645.908 251.794L647.291 250.379ZM645.672 250.727L646.082 250.308L648.626 252.91C648.741 253.029 648.845 253.1 648.937 253.125C649.028 253.148 649.11 253.142 649.183 253.108C649.256 253.071 649.323 253.022 649.383 252.96C649.428 252.914 649.463 252.874 649.487 252.839C649.511 252.804 649.529 252.775 649.543 252.754L649.995 253.045C649.977 253.084 649.949 253.135 649.91 253.196C649.871 253.259 649.814 253.33 649.738 253.408C649.622 253.527 649.483 253.617 649.322 253.68C649.163 253.742 648.995 253.758 648.82 253.728C648.646 253.697 648.482 253.602 648.327 253.444L645.672 250.727ZM651.688 251.455C651.447 251.702 651.178 251.859 650.882 251.928C650.586 251.996 650.285 251.976 649.977 251.869C649.67 251.762 649.378 251.567 649.103 251.285C648.825 251 648.632 250.7 648.526 250.385C648.42 250.069 648.401 249.759 648.467 249.457C648.534 249.154 648.688 248.879 648.929 248.632C649.17 248.386 649.438 248.229 649.733 248.161C650.03 248.093 650.332 248.113 650.64 248.222C650.95 248.33 651.243 248.526 651.521 248.81C651.797 249.092 651.987 249.391 652.091 249.706C652.197 250.02 652.216 250.329 652.149 250.632C652.083 250.934 651.929 251.209 651.688 251.455ZM651.32 251.078C651.503 250.891 651.606 250.689 651.631 250.472C651.655 250.255 651.619 250.04 651.523 249.825C651.427 249.611 651.29 249.412 651.111 249.23C650.933 249.047 650.738 248.906 650.527 248.807C650.317 248.707 650.105 248.669 649.891 248.693C649.678 248.717 649.48 248.822 649.297 249.009C649.114 249.197 649.011 249.399 648.988 249.617C648.965 249.835 649.002 250.052 649.099 250.268C649.196 250.484 649.334 250.683 649.513 250.865C649.691 251.048 649.885 251.188 650.095 251.286C650.304 251.385 650.515 251.422 650.727 251.397C650.939 251.372 651.137 251.266 651.32 251.078ZM653.523 249.464L649.965 245.823L650.375 245.404L651.689 246.748L651.723 246.712C651.707 246.634 651.69 246.531 651.671 246.403C651.653 246.272 651.665 246.127 651.709 245.965C651.753 245.802 651.862 245.631 652.036 245.454C652.261 245.224 652.515 245.078 652.799 245.018C653.083 244.958 653.376 244.984 653.678 245.096C653.98 245.209 654.272 245.409 654.552 245.695C654.835 245.984 655.032 246.284 655.143 246.595C655.253 246.904 655.28 247.204 655.223 247.494C655.165 247.783 655.025 248.042 654.802 248.269C654.631 248.445 654.465 248.556 654.305 248.604C654.144 248.65 653.999 248.664 653.871 248.646C653.741 248.627 653.637 248.608 653.558 248.589L653.509 248.639L653.92 249.059L653.523 249.464ZM652.592 247.686C652.794 247.892 653.001 248.044 653.214 248.141C653.426 248.237 653.632 248.272 653.833 248.244C654.032 248.216 654.214 248.118 654.378 247.949C654.55 247.774 654.648 247.581 654.672 247.372C654.696 247.159 654.66 246.945 654.564 246.728C654.468 246.509 654.325 246.302 654.135 246.108C653.947 245.916 653.749 245.772 653.541 245.678C653.332 245.58 653.126 245.546 652.922 245.574C652.718 245.6 652.529 245.702 652.356 245.88C652.189 246.051 652.091 246.237 652.062 246.44C652.032 246.642 652.063 246.849 652.156 247.062C652.247 247.274 652.393 247.482 652.592 247.686ZM657.681 245.324C657.424 245.587 657.146 245.756 656.846 245.83C656.546 245.903 656.243 245.886 655.937 245.779C655.631 245.67 655.341 245.475 655.068 245.196C654.795 244.916 654.604 244.619 654.495 244.303C654.386 243.986 654.363 243.675 654.425 243.372C654.488 243.066 654.639 242.79 654.88 242.544C655.019 242.401 655.18 242.285 655.362 242.193C655.544 242.102 655.742 242.053 655.958 242.046C656.172 242.038 656.397 242.087 656.634 242.193C656.87 242.3 657.113 242.481 657.362 242.736L657.535 242.913L655.478 245.018L655.124 244.655L656.764 242.977C656.613 242.823 656.449 242.717 656.271 242.657C656.093 242.597 655.915 242.588 655.737 242.631C655.56 242.672 655.397 242.769 655.249 242.92C655.085 243.088 654.985 243.274 654.946 243.479C654.908 243.681 654.922 243.881 654.986 244.078C655.051 244.274 655.157 244.448 655.304 244.598L655.541 244.84C655.742 245.046 655.948 245.186 656.158 245.258C656.367 245.328 656.571 245.336 656.769 245.283C656.966 245.228 657.147 245.116 657.313 244.947C657.421 244.837 657.503 244.722 657.56 244.602C657.617 244.48 657.646 244.355 657.648 244.227C657.65 244.098 657.621 243.968 657.563 243.838L658.071 243.546C658.163 243.726 658.211 243.919 658.215 244.124C658.217 244.328 658.174 244.533 658.086 244.739C657.997 244.944 657.862 245.139 657.681 245.324ZM659.355 243.498L656.686 240.768L657.082 240.362L657.485 240.775L657.513 240.746C657.429 240.561 657.41 240.362 657.456 240.147C657.501 239.933 657.603 239.744 657.763 239.58C657.793 239.549 657.831 239.511 657.878 239.466C657.924 239.421 657.96 239.388 657.985 239.367L658.403 239.794C658.385 239.804 658.348 239.831 658.291 239.875C658.235 239.917 658.179 239.965 658.124 240.021C657.995 240.154 657.906 240.3 657.859 240.46C657.811 240.618 657.805 240.775 657.841 240.933C657.877 241.088 657.955 241.227 658.076 241.351L659.765 243.079L659.355 243.498Z" fill="black"/>
<path d="M712.022 233.469V226.111" stroke="black"/>
<path d="M698.879 256.898L702.438 260.539L702.021 260.965L697.288 260.091L697.253 260.126L700.047 262.985L699.616 263.425L696.057 259.785L696.474 259.358L701.222 260.233L701.256 260.197L698.455 257.332L698.879 256.898ZM704.384 258.661C704.143 258.907 703.875 259.065 703.578 259.134C703.283 259.201 702.981 259.182 702.673 259.075C702.366 258.967 702.075 258.772 701.799 258.49C701.521 258.206 701.329 257.906 701.222 257.591C701.117 257.274 701.097 256.965 701.163 256.663C701.23 256.36 701.384 256.085 701.625 255.838C701.866 255.592 702.134 255.435 702.43 255.367C702.726 255.298 703.028 255.318 703.337 255.427C703.646 255.535 703.94 255.731 704.218 256.016C704.493 256.298 704.683 256.597 704.787 256.912C704.893 257.226 704.912 257.535 704.845 257.838C704.779 258.14 704.625 258.414 704.384 258.661ZM704.016 258.284C704.199 258.097 704.303 257.895 704.327 257.678C704.351 257.461 704.315 257.245 704.219 257.031C704.123 256.816 703.986 256.618 703.807 256.435C703.629 256.253 703.434 256.112 703.224 256.012C703.013 255.913 702.801 255.875 702.588 255.899C702.375 255.922 702.176 256.028 701.993 256.215C701.81 256.402 701.707 256.605 701.684 256.823C701.661 257.041 701.698 257.258 701.795 257.474C701.893 257.689 702.031 257.888 702.209 258.071C702.387 258.253 702.581 258.394 702.791 258.492C703.001 258.59 703.211 258.627 703.423 258.602C703.635 258.577 703.833 258.471 704.016 258.284ZM705.582 251.861L707.264 255.601L706.847 256.028L703.191 254.307L703.636 253.852L706.499 255.274L706.527 255.246L705.137 252.316L705.582 251.861ZM709.871 253.048C709.614 253.311 709.335 253.48 709.035 253.554C708.735 253.627 708.432 253.609 708.127 253.503C707.821 253.394 707.531 253.199 707.258 252.92C706.985 252.64 706.793 252.342 706.684 252.027C706.576 251.71 706.552 251.399 706.615 251.096C706.678 250.79 706.829 250.514 707.07 250.267C707.209 250.125 707.37 250.008 707.552 249.917C707.733 249.826 707.932 249.777 708.148 249.77C708.362 249.761 708.587 249.811 708.823 249.917C709.06 250.024 709.302 250.205 709.551 250.459L709.725 250.637L707.668 252.742L707.313 252.379L708.954 250.701C708.803 250.547 708.639 250.44 708.46 250.381C708.283 250.321 708.105 250.312 707.927 250.355C707.75 250.396 707.587 250.493 707.439 250.644C707.275 250.811 707.174 250.997 707.136 251.202C707.098 251.405 707.111 251.605 707.176 251.802C707.241 251.998 707.347 252.172 707.494 252.322L707.731 252.564C707.932 252.77 708.138 252.91 708.347 252.982C708.557 253.052 708.761 253.06 708.959 253.007C709.156 252.952 709.337 252.84 709.503 252.671C709.611 252.561 709.693 252.446 709.75 252.326C709.806 252.204 709.836 252.079 709.838 251.951C709.839 251.822 709.811 251.692 709.753 251.562L710.26 251.27C710.353 251.45 710.401 251.643 710.405 251.848C710.407 252.052 710.364 252.257 710.276 252.463C710.187 252.668 710.052 252.863 709.871 253.048ZM711.544 251.222L708.876 248.492L709.272 248.086L709.689 248.513L709.724 248.477C709.637 248.275 709.616 248.07 709.661 247.862C709.705 247.654 709.814 247.461 709.988 247.283C710.164 247.103 710.35 246.994 710.547 246.956C710.744 246.915 710.947 246.934 711.155 247.013L711.183 246.984C711.114 246.773 711.107 246.556 711.162 246.333C711.217 246.11 711.339 245.9 711.531 245.704C711.769 245.46 712.039 245.337 712.34 245.334C712.64 245.331 712.947 245.49 713.261 245.811L715.047 247.638L714.637 248.058L712.851 246.23C712.654 246.029 712.46 245.94 712.267 245.964C712.075 245.987 711.906 246.074 711.76 246.223C711.572 246.415 711.484 246.622 711.494 246.844C711.503 247.064 711.594 247.263 711.767 247.439L713.504 249.217L713.087 249.643L711.26 247.773C711.108 247.618 710.936 247.543 710.745 247.549C710.553 247.554 710.379 247.636 710.224 247.795C710.117 247.904 710.046 248.035 710.01 248.188C709.975 248.339 709.98 248.496 710.024 248.657C710.068 248.816 710.156 248.962 710.286 249.096L711.955 250.802L711.544 251.222ZM715.853 246.814L712.294 243.174L712.704 242.754L714.018 244.098L714.053 244.063C714.036 243.984 714.019 243.881 714.001 243.753C713.982 243.623 713.995 243.477 714.039 243.316C714.083 243.152 714.192 242.982 714.365 242.804C714.59 242.574 714.844 242.429 715.128 242.368C715.412 242.308 715.705 242.334 716.007 242.447C716.31 242.559 716.601 242.759 716.881 243.046C717.164 243.335 717.361 243.635 717.472 243.945C717.582 244.255 717.609 244.554 717.552 244.845C717.494 245.134 717.354 245.392 717.132 245.62C716.96 245.795 716.795 245.907 716.635 245.954C716.474 246 716.329 246.014 716.2 245.997C716.071 245.978 715.966 245.959 715.888 245.94L715.839 245.99L716.249 246.409L715.853 246.814ZM714.921 245.037C715.123 245.243 715.33 245.395 715.544 245.492C715.756 245.588 715.962 245.622 716.162 245.595C716.361 245.566 716.543 245.468 716.708 245.3C716.879 245.124 716.977 244.932 717.001 244.722C717.026 244.51 716.99 244.295 716.894 244.079C716.797 243.859 716.654 243.653 716.464 243.458C716.277 243.266 716.079 243.123 715.87 243.028C715.662 242.931 715.455 242.896 715.252 242.925C715.048 242.951 714.859 243.053 714.685 243.231C714.518 243.401 714.42 243.588 714.392 243.791C714.361 243.992 714.393 244.199 714.485 244.413C714.577 244.625 714.722 244.833 714.921 245.037ZM720.011 242.674C719.754 242.937 719.475 243.106 719.175 243.181C718.875 243.253 718.572 243.236 718.266 243.129C717.96 243.02 717.671 242.826 717.398 242.546C717.124 242.267 716.933 241.969 716.824 241.654C716.715 241.336 716.692 241.026 716.755 240.722C716.817 240.417 716.969 240.14 717.21 239.894C717.349 239.752 717.509 239.635 717.691 239.544C717.873 239.453 718.072 239.403 718.287 239.396C718.501 239.388 718.727 239.437 718.963 239.544C719.199 239.65 719.442 239.831 719.691 240.086L719.865 240.264L717.808 242.368L717.453 242.006L719.093 240.328C718.943 240.174 718.778 240.067 718.6 240.008C718.423 239.947 718.245 239.938 718.066 239.981C717.889 240.023 717.727 240.119 717.578 240.271C717.415 240.438 717.314 240.624 717.276 240.829C717.238 241.032 717.251 241.231 717.316 241.428C717.381 241.625 717.487 241.798 717.634 241.949L717.87 242.191C718.072 242.397 718.277 242.536 718.487 242.608C718.697 242.678 718.901 242.687 719.099 242.633C719.296 242.579 719.477 242.467 719.642 242.297C719.75 242.187 719.832 242.072 719.889 241.952C719.946 241.83 719.976 241.705 719.978 241.577C719.979 241.448 719.951 241.318 719.893 241.188L720.4 240.897C720.493 241.077 720.541 241.269 720.544 241.474C720.547 241.678 720.504 241.883 720.416 242.089C720.327 242.294 720.192 242.489 720.011 242.674ZM721.684 240.849L719.015 238.118L719.411 237.713L719.814 238.125L719.842 238.097C719.759 237.912 719.74 237.712 719.785 237.498C719.83 237.283 719.933 237.094 720.093 236.931C720.123 236.9 720.161 236.862 720.207 236.817C720.254 236.772 720.289 236.739 720.315 236.717L720.732 237.144C720.715 237.155 720.677 237.182 720.621 237.226C720.564 237.267 720.508 237.316 720.454 237.372C720.324 237.504 720.236 237.651 720.188 237.811C720.141 237.968 720.135 238.126 720.171 238.283C720.207 238.439 720.285 238.578 720.405 238.701L722.094 240.429L721.684 240.849Z" fill="black"/>
<path d="M771.761 233.469V226.111" stroke="black"/>
<path d="M760.561 262.192L759.463 263.315L755.904 259.675L757.051 258.502C757.396 258.148 757.763 257.919 758.151 257.814C758.538 257.707 758.929 257.722 759.326 257.86C759.721 257.996 760.102 258.253 760.471 258.63C760.841 259.009 761.094 259.403 761.23 259.812C761.364 260.219 761.377 260.626 761.268 261.031C761.158 261.435 760.922 261.822 760.561 262.192ZM759.511 262.484L760.151 261.829C760.445 261.528 760.632 261.221 760.712 260.907C760.792 260.593 760.775 260.28 760.66 259.968C760.545 259.657 760.343 259.353 760.054 259.056C759.766 258.762 759.472 258.557 759.171 258.441C758.869 258.324 758.569 258.304 758.271 258.381C757.972 258.457 757.684 258.637 757.405 258.921L756.717 259.625L759.511 262.484ZM764.099 258.687C763.841 258.95 763.563 259.118 763.263 259.193C762.963 259.265 762.66 259.248 762.354 259.142C762.048 259.033 761.759 258.838 761.485 258.559C761.212 258.279 761.021 257.981 760.912 257.666C760.803 257.349 760.78 257.038 760.842 256.735C760.905 256.429 761.057 256.153 761.298 255.906C761.437 255.764 761.597 255.647 761.779 255.556C761.961 255.465 762.16 255.416 762.375 255.409C762.589 255.4 762.815 255.449 763.051 255.556C763.287 255.663 763.53 255.843 763.779 256.098L763.953 256.276L761.895 258.381L761.541 258.018L763.181 256.34C763.031 256.186 762.866 256.079 762.688 256.02C762.51 255.96 762.333 255.951 762.154 255.993C761.977 256.035 761.814 256.131 761.666 256.283C761.503 256.45 761.402 256.636 761.364 256.841C761.325 257.044 761.339 257.244 761.404 257.44C761.469 257.637 761.575 257.811 761.722 257.961L761.958 258.203C762.16 258.409 762.365 258.548 762.575 258.621C762.784 258.691 762.988 258.699 763.186 258.646C763.383 258.591 763.565 258.479 763.73 258.31C763.838 258.199 763.92 258.084 763.977 257.965C764.034 257.843 764.063 257.718 764.066 257.59C764.067 257.461 764.038 257.331 763.98 257.2L764.488 256.909C764.581 257.089 764.629 257.282 764.632 257.487C764.634 257.69 764.592 257.895 764.504 258.102C764.414 258.307 764.279 258.502 764.099 258.687ZM765.591 252.808L765.327 253.291C765.243 253.252 765.149 253.226 765.046 253.213C764.943 253.198 764.834 253.21 764.719 253.249C764.604 253.288 764.487 253.368 764.368 253.49C764.205 253.658 764.106 253.835 764.073 254.024C764.039 254.21 764.08 254.362 764.194 254.479C764.296 254.583 764.414 254.628 764.547 254.612C764.68 254.597 764.845 254.529 765.042 254.408L765.536 254.102C765.832 253.917 766.099 253.826 766.335 253.828C766.57 253.829 766.781 253.925 766.967 254.116C767.12 254.273 767.213 254.458 767.245 254.671C767.279 254.883 767.252 255.105 767.165 255.336C767.079 255.567 766.931 255.788 766.724 256.001C766.452 256.279 766.168 256.449 765.871 256.511C765.574 256.572 765.289 256.511 765.014 256.328L765.306 255.83C765.487 255.939 765.665 255.977 765.84 255.945C766.016 255.912 766.188 255.81 766.356 255.638C766.547 255.442 766.658 255.246 766.689 255.048C766.721 254.847 766.679 254.689 766.564 254.571C766.472 254.476 766.362 254.43 766.234 254.433C766.106 254.434 765.958 254.487 765.793 254.593L765.244 254.941C764.941 255.132 764.672 255.224 764.436 255.217C764.199 255.207 763.989 255.108 763.805 254.92C763.654 254.766 763.563 254.586 763.532 254.381C763.502 254.175 763.528 253.963 763.609 253.745C763.691 253.525 763.826 253.32 764.014 253.128C764.278 252.858 764.543 252.705 764.809 252.669C765.077 252.632 765.338 252.679 765.591 252.808ZM769.503 253.158C769.246 253.421 768.967 253.59 768.667 253.664C768.367 253.737 768.064 253.719 767.758 253.613C767.453 253.504 767.163 253.309 766.89 253.03C766.616 252.75 766.425 252.452 766.316 252.137C766.207 251.82 766.184 251.509 766.247 251.206C766.309 250.9 766.461 250.624 766.702 250.377C766.841 250.235 767.001 250.118 767.183 250.027C767.365 249.936 767.564 249.887 767.779 249.88C767.994 249.871 768.219 249.921 768.455 250.027C768.691 250.134 768.934 250.315 769.183 250.569L769.357 250.747L767.3 252.852L766.945 252.489L768.586 250.811C768.435 250.657 768.27 250.55 768.092 250.491C767.915 250.431 767.737 250.422 767.559 250.464C767.381 250.506 767.219 250.603 767.07 250.754C766.907 250.921 766.806 251.107 766.768 251.312C766.73 251.515 766.743 251.715 766.808 251.911C766.873 252.108 766.979 252.282 767.126 252.432L767.362 252.674C767.564 252.88 767.769 253.02 767.979 253.092C768.189 253.162 768.393 253.17 768.591 253.117C768.788 253.062 768.969 252.95 769.135 252.781C769.242 252.671 769.325 252.556 769.381 252.436C769.438 252.314 769.468 252.189 769.47 252.061C769.471 251.932 769.443 251.802 769.385 251.672L769.892 251.38C769.985 251.56 770.033 251.753 770.036 251.958C770.039 252.162 769.996 252.367 769.908 252.573C769.819 252.778 769.684 252.973 769.503 253.158ZM771.176 251.332L768.507 248.602L768.903 248.196L769.321 248.623L769.355 248.587C769.268 248.385 769.248 248.18 769.293 247.972C769.337 247.764 769.446 247.571 769.619 247.393C769.795 247.213 769.982 247.104 770.179 247.066C770.376 247.025 770.579 247.044 770.787 247.123L770.815 247.094C770.745 246.883 770.738 246.666 770.794 246.443C770.848 246.219 770.971 246.01 771.162 245.814C771.401 245.57 771.671 245.447 771.972 245.444C772.272 245.441 772.579 245.6 772.893 245.921L774.679 247.748L774.269 248.168L772.483 246.34C772.286 246.139 772.091 246.05 771.899 246.074C771.707 246.097 771.538 246.184 771.392 246.333C771.204 246.525 771.115 246.732 771.126 246.954C771.135 247.174 771.226 247.373 771.399 247.549L773.136 249.327L772.719 249.753L770.891 247.883C770.74 247.728 770.568 247.653 770.377 247.659C770.185 247.664 770.011 247.746 769.856 247.905C769.749 248.014 769.678 248.145 769.642 248.298C769.607 248.449 769.612 248.606 769.656 248.767C769.7 248.926 769.787 249.072 769.918 249.206L771.586 250.912L771.176 251.332ZM775.485 246.924L771.926 243.284L772.336 242.864L773.65 244.208L773.684 244.173C773.668 244.094 773.651 243.991 773.632 243.863C773.614 243.733 773.627 243.587 773.671 243.426C773.715 243.262 773.823 243.092 773.997 242.914C774.222 242.684 774.476 242.539 774.76 242.478C775.044 242.418 775.337 242.444 775.639 242.557C775.942 242.669 776.233 242.869 776.513 243.156C776.796 243.445 776.993 243.745 777.104 244.055C777.214 244.365 777.241 244.664 777.184 244.955C777.126 245.244 776.986 245.502 776.763 245.73C776.592 245.905 776.426 246.017 776.266 246.064C776.105 246.11 775.961 246.124 775.832 246.107C775.702 246.088 775.598 246.069 775.519 246.05L775.471 246.1L775.881 246.519L775.485 246.924ZM774.553 245.147C774.755 245.353 774.962 245.505 775.175 245.602C775.387 245.698 775.593 245.732 775.794 245.705C775.993 245.676 776.175 245.578 776.339 245.41C776.511 245.234 776.609 245.042 776.633 244.832C776.657 244.62 776.622 244.405 776.525 244.189C776.429 243.969 776.286 243.763 776.096 243.568C775.909 243.376 775.71 243.233 775.502 243.138C775.293 243.041 775.087 243.006 774.883 243.035C774.679 243.061 774.491 243.163 774.317 243.341C774.15 243.511 774.052 243.698 774.023 243.901C773.993 244.102 774.024 244.309 774.117 244.523C774.209 244.735 774.354 244.943 774.553 245.147ZM779.643 242.784C779.385 243.047 779.107 243.216 778.807 243.291C778.507 243.363 778.204 243.346 777.898 243.239C777.592 243.13 777.303 242.936 777.029 242.656C776.756 242.377 776.565 242.079 776.456 241.764C776.347 241.446 776.324 241.136 776.386 240.832C776.449 240.527 776.601 240.25 776.842 240.004C776.981 239.862 777.141 239.745 777.323 239.654C777.505 239.563 777.703 239.513 777.919 239.506C778.133 239.498 778.359 239.547 778.595 239.654C778.831 239.76 779.074 239.941 779.323 240.196L779.497 240.374L777.439 242.478L777.085 242.116L778.725 240.438C778.575 240.284 778.41 240.177 778.232 240.118C778.054 240.057 777.877 240.048 777.698 240.091C777.521 240.133 777.358 240.229 777.21 240.381C777.047 240.548 776.946 240.734 776.908 240.939C776.869 241.142 776.883 241.341 776.948 241.538C777.012 241.735 777.118 241.908 777.266 242.059L777.502 242.301C777.703 242.507 777.909 242.646 778.119 242.718C778.328 242.788 778.532 242.797 778.73 242.743C778.927 242.689 779.109 242.577 779.274 242.407C779.382 242.297 779.464 242.182 779.521 242.062C779.578 241.94 779.607 241.815 779.61 241.687C779.611 241.558 779.582 241.428 779.524 241.298L780.032 241.007C780.124 241.187 780.173 241.379 780.176 241.584C780.178 241.788 780.135 241.993 780.047 242.199C779.958 242.404 779.823 242.599 779.643 242.784ZM781.316 240.959L778.647 238.228L779.043 237.823L779.446 238.235L779.474 238.207C779.391 238.022 779.372 237.822 779.417 237.608C779.462 237.393 779.564 237.204 779.724 237.041C779.754 237.01 779.793 236.972 779.839 236.927C779.885 236.882 779.921 236.849 779.947 236.827L780.364 237.254C780.346 237.265 780.309 237.292 780.252 237.336C780.196 237.377 780.14 237.426 780.086 237.482C779.956 237.614 779.867 237.761 779.82 237.921C779.772 238.078 779.767 238.236 779.802 238.393C779.838 238.549 779.917 238.688 780.037 238.811L781.726 240.539L781.316 240.959Z" fill="black"/>
<path d="M84.7585 34.2493V226.055" stroke="black"/>
<path d="M77.5659 226.055H84.7586" stroke="black"/>
<path d="M67.822 228.895C67.1799 228.895 66.633 228.721 66.1813 228.371C65.7296 228.019 65.3845 227.509 65.1458 226.841C64.9072 226.171 64.7879 225.361 64.7879 224.413C64.7879 223.469 64.9072 222.664 65.1458 221.996C65.3873 221.326 65.7339 220.814 66.1856 220.462C66.6401 220.107 67.1856 219.93 67.822 219.93C68.4583 219.93 69.0024 220.107 69.4541 220.462C69.9086 220.814 70.2552 221.326 70.4938 221.996C70.7353 222.664 70.8561 223.469 70.8561 224.413C70.8561 225.361 70.7367 226.171 70.4981 226.841C70.2595 227.509 69.9143 228.019 69.4626 228.371C69.0109 228.721 68.464 228.895 67.822 228.895ZM67.822 227.958C68.4583 227.958 68.9526 227.651 69.3049 227.038C69.6572 226.424 69.8333 225.549 69.8333 224.413C69.8333 223.657 69.7524 223.013 69.5904 222.482C69.4313 221.951 69.2012 221.546 68.9001 221.268C68.6018 220.989 68.2424 220.85 67.822 220.85C67.1913 220.85 66.6984 221.161 66.3433 221.783C65.9882 222.403 65.8106 223.279 65.8106 224.413C65.8106 225.168 65.8901 225.81 66.0492 226.339C66.2083 226.867 66.437 227.269 66.7353 227.545C67.0364 227.82 67.3987 227.958 67.822 227.958Z" fill="black"/>
<path d="M77.5659 178.103H84.7586" stroke="black"/>
<path d="M55.1646 172.098V180.825H54.1078V173.205H54.0567L51.926 174.62V173.546L54.1078 172.098H55.1646ZM60.4018 180.944C59.9018 180.944 59.4515 180.845 59.051 180.646C58.6504 180.447 58.3294 180.174 58.0879 179.828C57.8464 179.481 57.7143 179.086 57.6916 178.643H58.7143C58.7541 179.038 58.9331 179.365 59.2513 179.623C59.5723 179.879 59.9558 180.007 60.4018 180.007C60.7598 180.007 61.078 179.923 61.3564 179.755C61.6376 179.588 61.8578 179.357 62.0169 179.065C62.1788 178.769 62.2598 178.436 62.2598 178.063C62.2598 177.683 62.176 177.343 62.0084 177.045C61.8436 176.744 61.6163 176.507 61.3265 176.333C61.0368 176.16 60.7058 176.072 60.3336 176.069C60.0666 176.066 59.7924 176.107 59.5112 176.193C59.2299 176.275 58.9984 176.382 58.8166 176.512L57.828 176.393L58.3564 172.098H62.8905V173.035H59.2427L58.9359 175.609H58.987C59.166 175.467 59.3905 175.349 59.6603 175.255C59.9302 175.161 60.2115 175.115 60.5041 175.115C61.0382 175.115 61.514 175.242 61.9317 175.498C62.3521 175.751 62.6817 176.098 62.9203 176.538C63.1618 176.978 63.2825 177.481 63.2825 178.046C63.2825 178.603 63.1575 179.1 62.9075 179.538C62.6603 179.973 62.3194 180.316 61.8848 180.569C61.4501 180.819 60.9558 180.944 60.4018 180.944ZM67.8219 180.944C67.1799 180.944 66.633 180.769 66.1813 180.42C65.7296 180.068 65.3844 179.558 65.1458 178.89C64.9071 178.22 64.7878 177.41 64.7878 176.461C64.7878 175.518 64.9071 174.713 65.1458 174.045C65.3873 173.374 65.7339 172.863 66.1856 172.511C66.6401 172.156 67.1856 171.978 67.8219 171.978C68.4583 171.978 69.0023 172.156 69.454 172.511C69.9086 172.863 70.2552 173.374 70.4938 174.045C70.7353 174.713 70.856 175.518 70.856 176.461C70.856 177.41 70.7367 178.22 70.4981 178.89C70.2594 179.558 69.9142 180.068 69.4625 180.42C69.0108 180.769 68.464 180.944 67.8219 180.944ZM67.8219 180.007C68.4583 180.007 68.9526 179.7 69.3049 179.086C69.6571 178.473 69.8333 177.598 69.8333 176.461C69.8333 175.705 69.7523 175.062 69.5904 174.531C69.4313 173.999 69.2012 173.595 68.9 173.316C68.6018 173.038 68.2424 172.899 67.8219 172.899C67.1912 172.899 66.6983 173.21 66.3432 173.832C65.9881 174.451 65.8106 175.328 65.8106 176.461C65.8106 177.217 65.8901 177.859 66.0492 178.387C66.2083 178.916 66.437 179.318 66.7353 179.593C67.0364 179.869 67.3986 180.007 67.8219 180.007Z" fill="black"/>
<path d="M77.5659 130.152H84.7586" stroke="black"/>
<path d="M52.7837 132.993C52.2212 132.993 51.7198 132.896 51.2794 132.703C50.8419 132.51 50.4939 132.241 50.2354 131.898C49.9797 131.551 49.8405 131.149 49.8178 130.692H50.8916C50.9144 130.973 51.0109 131.216 51.1814 131.42C51.3519 131.622 51.5749 131.778 51.8504 131.889C52.126 132 52.4314 132.055 52.7666 132.055C53.1416 132.055 53.474 131.99 53.7638 131.859C54.0536 131.729 54.2808 131.547 54.4456 131.314C54.6104 131.081 54.6928 130.811 54.6928 130.504C54.6928 130.183 54.6132 129.9 54.4541 129.656C54.295 129.409 54.0621 129.216 53.7553 129.077C53.4484 128.937 53.0734 128.868 52.6303 128.868H51.9314V127.93H52.6303C52.9769 127.93 53.2808 127.868 53.5422 127.743C53.8064 127.618 54.0124 127.442 54.1601 127.214C54.3107 126.987 54.3859 126.72 54.3859 126.413C54.3859 126.118 54.3206 125.861 54.1899 125.642C54.0592 125.423 53.8746 125.253 53.6359 125.131C53.4002 125.008 53.1217 124.947 52.8007 124.947C52.4996 124.947 52.2155 125.003 51.9484 125.113C51.6842 125.221 51.4683 125.379 51.3007 125.586C51.1331 125.791 51.0422 126.038 51.028 126.328H50.0053C50.0223 125.871 50.1601 125.47 50.4186 125.126C50.6771 124.78 51.0152 124.51 51.4328 124.317C51.8533 124.123 52.3149 124.027 52.8178 124.027C53.3575 124.027 53.8206 124.136 54.207 124.355C54.5933 124.571 54.8902 124.856 55.0976 125.211C55.305 125.567 55.4087 125.95 55.4087 126.362C55.4087 126.854 55.2794 127.273 55.0209 127.619C54.7652 127.966 54.4172 128.206 53.9769 128.339V128.408C54.528 128.498 54.9584 128.733 55.2681 129.111C55.5777 129.486 55.7325 129.95 55.7325 130.504C55.7325 130.979 55.6033 131.405 55.3448 131.783C55.0891 132.158 54.7396 132.453 54.2965 132.669C53.8533 132.885 53.349 132.993 52.7837 132.993ZM60.322 132.993C59.68 132.993 59.1331 132.818 58.6814 132.469C58.2297 132.116 57.8845 131.606 57.6459 130.939C57.4073 130.268 57.2879 129.459 57.2879 128.51C57.2879 127.567 57.4073 126.761 57.6459 126.094C57.8874 125.423 58.234 124.912 58.6857 124.56C59.1402 124.204 59.6857 124.027 60.322 124.027C60.9584 124.027 61.5024 124.204 61.9541 124.56C62.4087 124.912 62.7553 125.423 62.9939 126.094C63.2354 126.761 63.3561 127.567 63.3561 128.51C63.3561 129.459 63.2368 130.268 62.9982 130.939C62.7595 131.606 62.4144 132.116 61.9627 132.469C61.5109 132.818 60.9641 132.993 60.322 132.993ZM60.322 132.055C60.9584 132.055 61.4527 131.748 61.805 131.135C62.1573 130.521 62.3334 129.646 62.3334 128.51C62.3334 127.754 62.2524 127.111 62.0905 126.579C61.9314 126.048 61.7013 125.643 61.4002 125.365C61.1019 125.086 60.7425 124.947 60.322 124.947C59.6913 124.947 59.1984 125.258 58.8433 125.881C58.4882 126.5 58.3107 127.376 58.3107 128.51C58.3107 129.265 58.3902 129.908 58.5493 130.436C58.7084 130.964 58.9371 131.366 59.2354 131.642C59.5365 131.917 59.8987 132.055 60.322 132.055ZM67.822 132.993C67.18 132.993 66.6331 132.818 66.1814 132.469C65.7297 132.116 65.3845 131.606 65.1459 130.939C64.9073 130.268 64.7879 129.459 64.7879 128.51C64.7879 127.567 64.9073 126.761 65.1459 126.094C65.3874 125.423 65.734 124.912 66.1857 124.56C66.6402 124.204 67.1857 124.027 67.822 124.027C68.4584 124.027 69.0024 124.204 69.4541 124.56C69.9087 124.912 70.2553 125.423 70.4939 126.094C70.7354 126.761 70.8561 127.567 70.8561 128.51C70.8561 129.459 70.7368 130.268 70.4982 130.939C70.2595 131.606 69.9144 132.116 69.4627 132.469C69.0109 132.818 68.4641 132.993 67.822 132.993ZM67.822 132.055C68.4584 132.055 68.9527 131.748 69.305 131.135C69.6573 130.521 69.8334 129.646 69.8334 128.51C69.8334 127.754 69.7524 127.111 69.5905 126.579C69.4314 126.048 69.2013 125.643 68.9002 125.365C68.6019 125.086 68.2425 124.947 67.822 124.947C67.1913 124.947 66.6984 125.258 66.3433 125.881C65.9882 126.5 65.8107 127.376 65.8107 128.51C65.8107 129.265 65.8902 129.908 66.0493 130.436C66.2084 130.964 66.4371 131.366 66.7354 131.642C67.0365 131.917 67.3987 132.055 67.822 132.055Z" fill="black"/>
<path d="M77.5659 82.2007H84.7586" stroke="black"/>
<path d="M49.7709 83.1323V82.263L53.6061 76.1948H54.2368V77.5414H53.8107L50.9129 82.1266V82.1948H56.0777V83.1323H49.7709ZM53.8788 84.9221V82.8681V82.4633V76.1948H54.8845V84.9221H53.8788ZM60.4019 85.0414C59.9019 85.0414 59.4516 84.942 59.0511 84.7431C58.6505 84.5442 58.3295 84.2715 58.088 83.9249C57.8465 83.5783 57.7144 83.1834 57.6917 82.7403H58.7144C58.7542 83.1351 58.9332 83.4619 59.2514 83.7204C59.5724 83.9761 59.9559 84.1039 60.4019 84.1039C60.7599 84.1039 61.0781 84.0201 61.3565 83.8525C61.6377 83.6849 61.8579 83.4548 62.017 83.1621C62.1789 82.8667 62.2599 82.5329 62.2599 82.1607C62.2599 81.78 62.1761 81.4405 62.0085 81.1423C61.8437 80.8411 61.6164 80.6039 61.3266 80.4306C61.0369 80.2573 60.7059 80.1692 60.3337 80.1664C60.0667 80.1636 59.7926 80.2048 59.5113 80.29C59.2301 80.3724 58.9985 80.4789 58.8167 80.6096L57.8281 80.4903L58.3565 76.1948H62.8906V77.1323H59.2428L58.936 79.7062H58.9872C59.1661 79.5641 59.3906 79.4462 59.6605 79.3525C59.9303 79.2587 60.2116 79.2119 60.5042 79.2119C61.0383 79.2119 61.5141 79.3397 61.9318 79.5954C62.3522 79.8482 62.6818 80.1948 62.9204 80.6351C63.1619 81.0755 63.2826 81.5783 63.2826 82.1437C63.2826 82.7005 63.1576 83.1976 62.9076 83.6351C62.6605 84.0698 62.3195 84.4136 61.8849 84.6664C61.4502 84.9164 60.9559 85.0414 60.4019 85.0414ZM67.822 85.0414C67.18 85.0414 66.6331 84.8667 66.1814 84.5173C65.7297 84.165 65.3845 83.655 65.1459 82.9874C64.9073 82.317 64.7879 81.5073 64.7879 80.5584C64.7879 79.6153 64.9073 78.8099 65.1459 78.1423C65.3874 77.4718 65.734 76.9604 66.1857 76.6082C66.6402 76.253 67.1857 76.0755 67.822 76.0755C68.4584 76.0755 69.0024 76.253 69.4541 76.6082C69.9087 76.9604 70.2553 77.4718 70.4939 78.1423C70.7354 78.8099 70.8561 79.6153 70.8561 80.5584C70.8561 81.5073 70.7368 82.317 70.4982 82.9874C70.2595 83.655 69.9144 84.165 69.4627 84.5173C69.0109 84.8667 68.4641 85.0414 67.822 85.0414ZM67.822 84.1039C68.4584 84.1039 68.9527 83.7971 69.305 83.1834C69.6573 82.5698 69.8334 81.6948 69.8334 80.5584C69.8334 79.8028 69.7524 79.1593 69.5905 78.628C69.4314 78.0968 69.2013 77.692 68.9002 77.4136C68.6019 77.1351 68.2425 76.9959 67.822 76.9959C67.1913 76.9959 66.6984 77.307 66.3433 77.9292C65.9882 78.5485 65.8107 79.4249 65.8107 80.5584C65.8107 81.3141 65.8902 81.9562 66.0493 82.4846C66.2084 83.013 66.4371 83.415 66.7354 83.6905C67.0365 83.9661 67.3987 84.1039 67.822 84.1039Z" fill="black"/>
<path d="M77.5659 34.2493H84.7586" stroke="black"/>
<path d="M52.8849 42.1193C52.5269 42.1136 52.169 42.0455 51.811 41.9148C51.4531 41.7841 51.1264 41.5639 50.8309 41.2543C50.5355 40.9418 50.2982 40.5199 50.1193 39.9886C49.9403 39.4545 49.8508 38.7841 49.8508 37.9773C49.8508 37.2045 49.9232 36.5199 50.0681 35.9233C50.213 35.3239 50.4232 34.8196 50.6988 34.4105C50.9744 33.9986 51.3068 33.6861 51.696 33.473C52.088 33.2599 52.5298 33.1534 53.0212 33.1534C53.5099 33.1534 53.9445 33.2514 54.3252 33.4474C54.7087 33.6406 55.0212 33.9105 55.2627 34.2571C55.5042 34.6037 55.6605 35.0028 55.7315 35.4545H54.6917C54.5951 35.0625 54.4076 34.7372 54.1292 34.4787C53.8508 34.2202 53.4815 34.0909 53.0212 34.0909C52.3451 34.0909 51.8124 34.3849 51.4232 34.973C51.0369 35.5611 50.8423 36.3864 50.8394 37.4489H50.9076C51.0667 37.2074 51.2556 37.0014 51.4744 36.831C51.696 36.6577 51.9403 36.5241 52.2073 36.4304C52.4744 36.3366 52.757 36.2898 53.0553 36.2898C53.5553 36.2898 54.0127 36.4148 54.4275 36.6648C54.8423 36.9119 55.1747 37.2543 55.4247 37.6918C55.6747 38.1264 55.7997 38.625 55.7997 39.1875C55.7997 39.7273 55.6789 40.2216 55.4374 40.6705C55.196 41.1165 54.8565 41.4716 54.419 41.7358C53.9843 41.9972 53.473 42.125 52.8849 42.1193ZM52.8849 41.1818C53.2428 41.1818 53.5639 41.0923 53.848 40.9134C54.1349 40.7344 54.3607 40.4943 54.5255 40.1932C54.6931 39.892 54.7769 39.5568 54.7769 39.1875C54.7769 38.8267 54.696 38.4986 54.534 38.2031C54.3749 37.9048 54.1548 37.6676 53.8735 37.4915C53.5951 37.3153 53.2769 37.2273 52.919 37.2273C52.6491 37.2273 52.3977 37.2812 52.1647 37.3892C51.9318 37.4943 51.7272 37.6392 51.5511 37.8239C51.3778 38.0085 51.2414 38.2202 51.142 38.4588C51.0426 38.6946 50.9928 38.9432 50.9928 39.2045C50.9928 39.5511 51.0738 39.875 51.2357 40.1761C51.4005 40.4773 51.6249 40.7202 51.909 40.9048C52.196 41.0895 52.5212 41.1818 52.8849 41.1818ZM60.322 42.1193C59.68 42.1193 59.1331 41.9446 58.6814 41.5952C58.2297 41.2429 57.8845 40.733 57.6459 40.0653C57.4073 39.3949 57.2879 38.5852 57.2879 37.6364C57.2879 36.6932 57.4073 35.8878 57.6459 35.2202C57.8874 34.5497 58.234 34.0384 58.6857 33.6861C59.1402 33.331 59.6857 33.1534 60.322 33.1534C60.9584 33.1534 61.5024 33.331 61.9541 33.6861C62.4087 34.0384 62.7553 34.5497 62.9939 35.2202C63.2354 35.8878 63.3561 36.6932 63.3561 37.6364C63.3561 38.5852 63.2368 39.3949 62.9982 40.0653C62.7595 40.733 62.4144 41.2429 61.9627 41.5952C61.5109 41.9446 60.9641 42.1193 60.322 42.1193ZM60.322 41.1818C60.9584 41.1818 61.4527 40.875 61.805 40.2614C62.1573 39.6477 62.3334 38.7727 62.3334 37.6364C62.3334 36.8807 62.2524 36.2372 62.0905 35.706C61.9314 35.1747 61.7013 34.7699 61.4002 34.4915C61.1019 34.2131 60.7425 34.0739 60.322 34.0739C59.6913 34.0739 59.1984 34.3849 58.8433 35.0071C58.4882 35.6264 58.3107 36.5028 58.3107 37.6364C58.3107 38.392 58.3902 39.0341 58.5493 39.5625C58.7084 40.0909 58.9371 40.4929 59.2354 40.7685C59.5365 41.044 59.8987 41.1818 60.322 41.1818ZM67.822 42.1193C67.18 42.1193 66.6331 41.9446 66.1814 41.5952C65.7297 41.2429 65.3845 40.733 65.1459 40.0653C64.9073 39.3949 64.7879 38.5852 64.7879 37.6364C64.7879 36.6932 64.9073 35.8878 65.1459 35.2202C65.3874 34.5497 65.734 34.0384 66.1857 33.6861C66.6402 33.331 67.1857 33.1534 67.822 33.1534C68.4584 33.1534 69.0024 33.331 69.4541 33.6861C69.9087 34.0384 70.2553 34.5497 70.4939 35.2202C70.7354 35.8878 70.8561 36.6932 70.8561 37.6364C70.8561 38.5852 70.7368 39.3949 70.4982 40.0653C70.2595 40.733 69.9144 41.2429 69.4627 41.5952C69.0109 41.9446 68.4641 42.1193 67.822 42.1193ZM67.822 41.1818C68.4584 41.1818 68.9527 40.875 69.305 40.2614C69.6573 39.6477 69.8334 38.7727 69.8334 37.6364C69.8334 36.8807 69.7524 36.2372 69.5905 35.706C69.4314 35.1747 69.2013 34.7699 68.9002 34.4915C68.6019 34.2131 68.2425 34.0739 67.822 34.0739C67.1913 34.0739 66.6984 34.3849 66.3433 35.0071C65.9882 35.6264 65.8107 36.5028 65.8107 37.6364C65.8107 38.392 65.8902 39.0341 66.0493 39.5625C66.2084 40.0909 66.4371 40.4929 66.7354 40.7685C67.0365 41.044 67.3987 41.1818 67.822 41.1818Z" fill="black"/>
<path d="M90.7327 142.939H137.485V226.055H90.7327V142.939Z" fill="#DC5252"/>
<path d="M150.472 92.75H197.224V226.055H150.472V92.75Z" fill="#52DC71"/>
<path d="M210.211 125.677H256.964V226.055H210.211V125.677Z" fill="#DCA552"/>
<path d="M269.951 112.57H316.703V226.055H269.951V112.57Z" fill="#DC5252"/>
<path d="M329.69 211.03H376.443V226.055H329.69V211.03Z" fill="#52DC71"/>
<path d="M389.43 122.799H436.182V226.055H389.43V122.799Z" fill="#DCA552"/>
<path d="M449.169 197.923H495.922V226.055H449.169V197.923Z" fill="#DC5252"/>
<path d="M508.908 222.858H555.661V226.055H508.908V222.858Z" fill="#52DC71"/>
<path d="M568.648 181.62H615.401V226.055H568.648V181.62Z" fill="#DCA552"/>
<path d="M628.387 92.1106H675.14V226.055H628.387V92.1106Z" fill="#DC5252"/>
<path d="M688.126 136.865H734.879V226.055H688.126V136.865Z" fill="#52DC71"/>
<path d="M747.866 215.186H794.619V226.055H747.866V215.186Z" fill="#DCA552"/>
</g>
<defs>
<filter id="filter0_d_81_193" x="0" y="0" width="845.631" height="314" filterUnits="userSpaceOnUse" color-interpolation-filters="sRGB">
<feFlood flood-opacity="0" result="BackgroundImageFix"/>
<feColorMatrix in="SourceAlpha" type="matrix" values="0 0 0 0 0 0 0 0 0 0 0 0 0 0 0 0 0 0 127 0" result="hardAlpha"/>
<feMorphology radius="3" operator="erode" in="SourceAlpha" result="effect1_dropShadow_81_193"/>
<feOffset dy="2"/>
<feGaussianBlur stdDeviation="7.5"/>
<feComposite in2="hardAlpha" operator="out"/>
<feColorMatrix type="matrix" values="0 0 0 0 0 0 0 0 0 0 0 0 0 0 0 0 0 0 0.15 0"/>
<feBlend mode="normal" in2="BackgroundImageFix" result="effect1_dropShadow_81_193"/>
<feBlend mode="normal" in="SourceGraphic" in2="effect1_dropShadow_81_193" result="shape"/>
</filter>
</defs>
</svg>
