<svg width="60" height="60" viewBox="0 0 60 60" fill="none" xmlns="http://www.w3.org/2000/svg">
<rect width="60" height="60" rx="30" fill="#DCA552"/>
<path d="M39.4246 24.6673L34.1213 29.9706C32.9334 31.1585 32.2227 32.654 32 34.2132L25.636 27.8492C27.2376 27.6265 28.712 26.8946 29.8787 25.7279L35.182 20.4246L39.4246 24.6673ZM44.7279 25.7279L34.1213 15.1213C33.538 14.538 32.5834 14.538 32 15.1213C31.4166 15.7047 31.4166 16.6593 32 17.2426L33.0607 18.3033L27.7574 23.6066C25.9967 25.3673 23.1541 25.3673 21.3934 23.6066L19.2721 25.7279L25.6042 32.0601L18.1796 39.4847V41.606H20.3009L27.7255 34.1814L34.1213 40.5772L36.2426 38.4558C34.4819 36.6951 34.4819 33.8526 36.2426 32.0919L41.5459 26.7886L42.6066 27.8492C43.19 28.4326 44.1446 28.4326 44.7279 27.8492C45.3113 27.2659 45.3113 26.3113 44.7279 25.7279Z" fill="white"/>
</svg>
