<svg width="30" height="31" viewBox="0 0 30 31" fill="none" xmlns="http://www.w3.org/2000/svg">
<path d="M15 0.5C6.72 0.5 0 7.22 0 15.5C0 23.78 6.72 30.5 15 30.5C23.28 30.5 30 23.78 30 15.5C30 7.22 23.28 0.5 15 0.5ZM7.605 24.92C8.25 23.57 12.18 22.25 15 22.25C17.82 22.25 21.765 23.57 22.395 24.92C20.355 26.54 17.79 27.5 15 27.5C12.21 27.5 9.645 26.54 7.605 24.92ZM24.54 22.745C22.395 20.135 17.19 19.25 15 19.25C12.81 19.25 7.605 20.135 5.46 22.745C3.93 20.735 3 18.23 3 15.5C3 8.885 8.385 3.5 15 3.5C21.615 3.5 27 8.885 27 15.5C27 18.23 26.07 20.735 24.54 22.745ZM15 6.5C12.09 6.5 9.75 8.84 9.75 11.75C9.75 14.66 12.09 17 15 17C17.91 17 20.25 14.66 20.25 11.75C20.25 8.84 17.91 6.5 15 6.5ZM15 14C13.755 14 12.75 12.995 12.75 11.75C12.75 10.505 13.755 9.5 15 9.5C16.245 9.5 17.25 10.505 17.25 11.75C17.25 12.995 16.245 14 15 14Z" fill="#121212"/>
</svg>
