<svg width="60" height="60" viewBox="0 0 60 60" fill="none" xmlns="http://www.w3.org/2000/svg">
<rect width="60" height="60" rx="30" fill="#52DC71"/>
<path d="M30 15C21.72 15 15 21.72 15 30C15 38.28 21.72 45 30 45C38.28 45 45 38.28 45 30C45 21.72 38.28 15 30 15ZM22.605 39.42C23.25 38.07 27.18 36.75 30 36.75C32.82 36.75 36.765 38.07 37.395 39.42C35.355 41.04 32.79 42 30 42C27.21 42 24.645 41.04 22.605 39.42ZM39.54 37.245C37.395 34.635 32.19 33.75 30 33.75C27.81 33.75 22.605 34.635 20.46 37.245C18.93 35.235 18 32.73 18 30C18 23.385 23.385 18 30 18C36.615 18 42 23.385 42 30C42 32.73 41.07 35.235 39.54 37.245ZM30 21C27.09 21 24.75 23.34 24.75 26.25C24.75 29.16 27.09 31.5 30 31.5C32.91 31.5 35.25 29.16 35.25 26.25C35.25 23.34 32.91 21 30 21ZM30 28.5C28.755 28.5 27.75 27.495 27.75 26.25C27.75 25.005 28.755 24 30 24C31.245 24 32.25 25.005 32.25 26.25C32.25 27.495 31.245 28.5 30 28.5Z" fill="#F7F7F7"/>
</svg>
