<?xml version="1.0" encoding="iso-8859-1"?>
<!-- Uploaded to: SVG Repo, www.svgrepo.com, Generator: SVG Repo Mixer Tools -->
<svg fill="#000000" height="800px" width="800px" version="1.1" id="Layer_1" xmlns="http://www.w3.org/2000/svg" xmlns:xlink="http://www.w3.org/1999/xlink" 
	 viewBox="0 0 511.952 511.952" xml:space="preserve">
<g>
	<g>
		<path d="M511.927,7.632c-0.017-0.188-0.094-0.367-0.128-0.555c-0.085-0.529-0.154-1.075-0.35-1.579
			c-0.009-0.051-0.06-0.102-0.085-0.171c-0.068-0.179-0.196-0.333-0.273-0.512c-0.128-0.265-0.265-0.503-0.41-0.76
			c-0.247-0.384-0.512-0.759-0.819-1.109c-0.094-0.111-0.119-0.247-0.213-0.341c-0.12-0.128-0.282-0.162-0.393-0.282
			c-0.12-0.102-0.213-0.239-0.333-0.341c-0.068-0.051-0.102-0.137-0.171-0.188c-0.017-0.017-0.034-0.017-0.051-0.026
			c-0.034-0.026-0.051-0.051-0.077-0.077c-0.418-0.324-0.905-0.529-1.374-0.759c-0.188-0.102-0.358-0.23-0.555-0.316
			c-0.222-0.085-0.444-0.137-0.666-0.205c-0.273-0.094-0.555-0.137-0.845-0.196c-0.427-0.085-0.853-0.188-1.28-0.213
			c-0.273-0.017-0.529,0.034-0.794,0.043c-0.034,0-0.068,0.009-0.102,0.009c-0.273,0.008-0.529,0-0.794,0.043
			c-0.427,0.06-0.828,0.188-1.246,0.316c-0.29,0.085-0.563,0.171-0.853,0.29c-0.188,0.085-0.393,0.111-0.58,0.205L21.67,248.375
			c-14.08,7.296-21.973,18.304-21.649,30.216c0.307,11.494,8.354,21.623,22.212,27.87l92.194,39.509
			c4.292,1.86,9.353-0.145,11.204-4.48c1.852-4.326-0.154-9.344-4.489-11.204l-92.041-39.45
			c-7.518-3.388-11.887-8.021-12.023-12.706c-0.137-5.043,4.514-10.496,12.442-14.601L454.225,43.592L139.174,343.641
			c-0.017,0.026-0.026,0.06-0.051,0.077c-0.572,0.555-0.956,1.246-1.348,1.929c-0.162,0.282-0.418,0.521-0.555,0.811
			c-0.119,0.29-0.111,0.614-0.196,0.913c-0.239,0.777-0.469,1.553-0.478,2.355c0,0.034-0.017,0.06-0.017,0.094v153.6
			c0,0.828,0.137,1.63,0.358,2.406c0.009,0.026,0.009,0.06,0.017,0.094c0.29,0.939,0.785,1.792,1.374,2.586
			c0.171,0.23,0.375,0.427,0.572,0.631c0.521,0.563,1.101,1.05,1.758,1.451c0.171,0.111,0.265,0.273,0.435,0.358
			c0.145,0.077,0.307,0.111,0.444,0.171c0.111,0.051,0.188,0.137,0.307,0.188c0.119,0.051,0.239,0.026,0.367,0.068
			c0.956,0.35,1.929,0.58,2.893,0.58h0.009h0.008c0.99-0.009,1.937-0.23,2.859-0.563c0.239-0.085,0.469-0.188,0.7-0.299
			c0.845-0.384,1.63-0.888,2.321-1.536c0.034-0.043,0.102-0.06,0.145-0.102l0.085-0.085c0.009-0.009,0.017-0.017,0.026-0.026
			l85.222-85.222c3.336-3.336,3.336-8.73,0-12.066c-3.337-3.337-8.73-3.337-12.066,0l-44.774,44.774l40.934-76.749L487.59,42.32
			l-79.172,374.221c-1.493,7.202-4.838,12.382-9.668,14.976c-5.222,2.799-12.023,2.645-19.78-0.444L247.3,379.549
			c-4.369-1.707-9.327,0.452-11.059,4.838c-1.715,4.386,0.452,9.344,4.847,11.059l131.61,51.49c6.007,2.406,11.972,3.61,17.621,3.61
			c5.939,0,11.546-1.331,16.503-3.994c9.293-4.983,15.795-14.413,18.304-26.505l86.69-409.796c0.068-0.341,0.034-0.691,0.06-1.041
			c0.026-0.29,0.068-0.563,0.06-0.862C511.936,8.11,511.953,7.871,511.927,7.632z M206.638,370.128
			c-0.162,0.196-0.205,0.452-0.333,0.666c-0.154,0.222-0.375,0.367-0.512,0.606l-52.198,97.877V353.471l268.1-255.334
			L206.638,370.128z"/>
	</g>
</g>
</svg>