<svg width="60" height="60" viewBox="0 0 60 60" fill="none" xmlns="http://www.w3.org/2000/svg">
<rect width="60" height="60" rx="30" fill="#991313"/>
<path d="M27.167 40.4516L27.1237 32.9517C27.114 31.2717 26.55 29.7149 25.5977 28.4604L34.5976 28.4085C33.63 29.7041 33.1141 31.2671 33.1236 32.917L33.1669 40.4169L27.167 40.4516ZM22.6844 43.4775L37.6841 43.3909C38.5091 43.3861 39.1802 42.7072 39.1754 41.8823C39.1707 41.0573 38.4918 40.3862 37.6668 40.3909L36.1668 40.3996L36.1235 32.8997C36.1092 30.4098 38.1075 28.3882 40.5975 28.3738L40.5802 25.3739L31.6253 25.4256L31.5647 14.9257L30.0561 13.4344L28.5647 14.9431L28.6254 25.4429L19.5805 25.4951L19.5978 28.4951C22.0878 28.4807 24.1094 30.479 24.1237 32.969L24.167 40.4689L22.6671 40.4775C21.8421 40.4823 21.171 41.1612 21.1757 41.9862C21.1805 42.8112 21.8594 43.4823 22.6844 43.4775Z" fill="white"/>
</svg>
